<?xml version="1.0" standalone="no"?>
<!DOCTYPE svg PUBLIC "-//W3C//DTD SVG 1.1//EN" "http://www.w3.org/Graphics/SVG/1.1/DTD/svg11.dtd" >
<svg>
<metadata>
Created by FontForge 20120731 at Fri Oct 28 21:39:02 2016
 By ,,,
HTF Knockout Copr. 1994-7 The Hoefler Type Foundry, Inc. http://www.typography.com
</metadata>
<defs>
<font id="Knockout-HTF68-FullFeatherwt" horiz-adv-x="299" >
  <font-face 
    font-family="Knockout HTF68-FullFeatherwt"
    font-weight="500"
    font-stretch="normal"
    units-per-em="1000"
    panose-1="0 0 0 0 0 0 0 0 0 0"
    ascent="800"
    descent="-200"
    x-height="491"
    cap-height="666"
    bbox="-221 -207 868 841"
    underline-thickness="80"
    underline-position="-80"
    unicode-range="U+0020-FB02"
  />
<missing-glyph horiz-adv-x="500" 
 />
    <glyph glyph-name=".notdef" horiz-adv-x="500" 
 />
    <glyph glyph-name=".null" horiz-adv-x="0" 
 />
    <glyph glyph-name="nonmarkingreturn" horiz-adv-x="333" 
 />
    <glyph glyph-name="space" unicode=" " horiz-adv-x="126" 
 />
    <glyph glyph-name="exclam" unicode="!" horiz-adv-x="167" 
d="M137 377l-36 -200h-34l-36 200v289h106v-289zM128 0h-89v115h89v-115z" />
    <glyph glyph-name="quotedbl" unicode="&#x22;" horiz-adv-x="220" 
d="M223 666l-63 -202h-53l44 202h72zM115 666l-49 -202h-51l30 202h70z" />
    <glyph glyph-name="numbersign" unicode="#" horiz-adv-x="484" 
d="M480 428h-110l-29 -190h114v-52h-123l-27 -186h-60l28 186h-102l-28 -186h-59l28 186h-102v52h110l29 190h-114v52h122l29 186h59l-28 -186h101l29 186h59l-28 -186h102v-52zM310 428h-101l-30 -190h102z" />
    <glyph glyph-name="dollar" unicode="$" horiz-adv-x="346" 
d="M137 673v67h77v-65q49 -11 78 -52t29 -101v-58h-105v67q0 40 -33 40q-16 0 -27 -10t-11 -31q0 -14 1.5 -25.5t5.5 -23t7 -19t12 -20t13.5 -18.5t17.5 -23t19 -25q34 -44 52 -69.5t36 -68.5t18 -83q0 -63 -30.5 -107t-82.5 -56v-67h-77v66q-55 11 -84.5 50.5t-29.5 102.5
v58h104v-63q0 -47 41 -47q40 0 40 46q0 39 -15 71.5t-59 80.5q-109 125 -109 219q0 60 29 105t83 59z" />
    <glyph glyph-name="percent" unicode="%" horiz-adv-x="505" 
d="M207 432q0 -43 -25.5 -68.5t-66.5 -25.5q-40 0 -65.5 25.5t-25.5 68.5v152q0 43 25.5 68.5t65.5 25.5q41 0 66.5 -25.5t25.5 -68.5v-152zM455 656l-366 -676l-39 29l367 676zM482 81q0 -43 -26 -69t-66 -26t-66 26t-26 69v152q0 43 26 68.5t66 25.5t66 -25.5t26 -68.5
v-152zM143 421v174q0 13 -8 21.5t-20 8.5t-20 -8.5t-8 -21.5v-174q0 -13 8 -21t20 -8t20 8t8 21zM418 70v173q0 13 -8 21.5t-20 8.5t-19.5 -8.5t-7.5 -21.5v-173q0 -13 7.5 -21.5t19.5 -8.5t20 8.5t8 21.5z" />
    <glyph glyph-name="ampersand" unicode="&#x26;" horiz-adv-x="480" 
d="M468 103q0 -116 -85 -116q-46 0 -90 46q-51 -46 -119 -46q-64 0 -106.5 50t-42.5 122q0 126 106 204q-37 82 -37 142q0 83 41 128.5t107 45.5q58 0 90 -40t32 -104q0 -55 -25.5 -100.5t-81.5 -95.5q38 -103 52 -131q23 46 23 133h90q-2 -125 -62 -222q14 -24 32 -24
q26 0 26 35v22h50v-49zM268 527q0 43 -29 43q-35 0 -35 -55q0 -38 17 -89q22 21 34.5 49.5t12.5 51.5zM228 112q-25 44 -60 144q-28 -30 -28 -87q0 -70 55 -70q20 0 33 13z" />
    <glyph glyph-name="quotesingle" unicode="'" horiz-adv-x="136" 
d="M149 666l-72 -202h-54l33 202h93z" />
    <glyph glyph-name="parenleft" unicode="(" horiz-adv-x="264" 
d="M264 -118l-30 -31q-168 152 -168 453q0 303 168 453l30 -30q-54 -75 -77.5 -172t-23.5 -251t23.5 -250.5t77.5 -171.5z" />
    <glyph glyph-name="parenright" unicode=")" horiz-adv-x="264" 
d="M200 304q0 -301 -168 -453l-30 31q54 75 77.5 171.5t23.5 250.5t-23.5 251t-77.5 172l30 30q168 -150 168 -453z" />
    <glyph glyph-name="asterisk" unicode="*" horiz-adv-x="258" 
d="M238 505l-14 -25q-4 -7 -16 -2q-37 23 -63 47q9 -43 9 -79q0 -12 -9 -12h-30q-9 0 -9 12q0 39 9 79q-34 -31 -64 -47q-10 -7 -15 1l-15 26q-4 7 6 14q37 20 72 31q-40 13 -72 32q-11 7 -6 14l14 26q5 8 16 1q32 -19 63 -46q-9 37 -9 78q0 13 9 13h30q9 0 9 -13
q0 -39 -9 -78q36 31 64 47q11 6 15 -2l15 -26q5 -9 -6 -13q-35 -20 -72 -32q38 -12 72 -31q11 -7 6 -15z" />
    <glyph glyph-name="plus" unicode="+" horiz-adv-x="298" 
d="M274 301h-85v-88h-80v88h-86v81h86v89h80v-89h85v-81z" />
    <glyph glyph-name="comma" unicode="," horiz-adv-x="141" 
d="M118 12q0 -43 -26 -71.5t-69 -28.5v28q45 0 45 60h-45v130h95v-118z" />
    <glyph glyph-name="hyphen" unicode="-" horiz-adv-x="210" 
d="M194 264h-178v84h178v-84z" />
    <glyph glyph-name="period" unicode="." horiz-adv-x="141" 
d="M118 0h-95v129h95v-129z" />
    <glyph glyph-name="slash" unicode="/" horiz-adv-x="233" 
d="M234 729l-174 -793h-63l173 793h64z" />
    <glyph glyph-name="zero" unicode="0" horiz-adv-x="359" 
d="M330 140q0 -68 -41.5 -110.5t-108.5 -42.5q-68 0 -109 42t-41 111v385q0 69 41 111t109 42t109 -42t41 -111v-385zM212 133v400q0 13 -8.5 21.5t-23.5 8.5t-24 -8.5t-9 -21.5v-400q0 -13 9 -21.5t24 -8.5t23.5 8.5t8.5 21.5z" />
    <glyph glyph-name="one" unicode="1" horiz-adv-x="230" 
d="M174 0h-118v613q51 0 51 53h67v-666z" />
    <glyph glyph-name="two" unicode="2" horiz-adv-x="333" 
d="M312 519q0 -66 -21 -119.5t-76 -127.5q-38 -64 -51.5 -98t-13.5 -62h158v-112h-291v29q0 72 23 134t90 170q41 64 56.5 105t15.5 88q0 40 -34 40t-34 -40v-77h-107v87q0 58 36.5 100.5t101.5 42.5q76 0 111.5 -44t35.5 -116z" />
    <glyph glyph-name="three" unicode="3" horiz-adv-x="333" 
d="M310 133q0 -65 -42 -105.5t-110 -40.5q-64 0 -100.5 42.5t-36.5 100.5v72h108v-63q0 -37 32 -37t32 33v127q0 26 -24 26h-44v95h44q24 0 24 25v123q0 33 -32 33t-32 -37v-64h-108v73q0 58 36.5 100.5t100.5 42.5q68 0 110 -40.5t42 -105.5v-97q0 -37 -17.5 -63t-48.5 -35
q66 -25 66 -98v-107z" />
    <glyph glyph-name="four" unicode="4" horiz-adv-x="336" 
d="M323 133h-40v-133h-111v133h-161v88l172 445h100v-434h40v-99zM172 232v168l-60 -168h60z" />
    <glyph glyph-name="five" unicode="5" horiz-adv-x="332" 
d="M312 666q-7 -112 -66 -112h-102l-8 -155q30 39 85 39q40 0 65.5 -29t25.5 -75v-201q0 -65 -42 -105.5t-110 -40.5q-64 0 -100.5 42.5t-36.5 100.5v68h108v-59q0 -37 32 -37t32 33v177q0 13 -8.5 22.5t-19.5 9.5t-20 -8.5t-9 -18.5l-107 11l16 338h265z" />
    <glyph glyph-name="six" unicode="6" horiz-adv-x="348" 
d="M324 142q0 -69 -40 -112t-107 -43q-68 0 -108 43t-40 112v382q0 68 41 111.5t108 43.5q65 0 102.5 -43t37.5 -100v-72h-105v63q0 37 -33 37q-34 0 -34 -32v-166q29 38 79 38q46 0 72.5 -28.5t26.5 -74.5v-159zM208 130v154q0 12 -8.5 20t-22.5 8q-31 0 -31 -28v-154
q0 -28 31 -28q14 0 22.5 8t8.5 20z" />
    <glyph glyph-name="seven" unicode="7" horiz-adv-x="324" 
d="M313 615q-116 -294 -124 -615h-132q7 145 46.5 295.5t91.5 252.5h-173v118h291v-51z" />
    <glyph glyph-name="eight" unicode="8" horiz-adv-x="357" 
d="M329 133q0 -65 -41.5 -105.5t-108.5 -40.5q-68 0 -109.5 40.5t-41.5 105.5v106q0 70 50 97q-50 25 -50 96v101q0 65 41.5 105.5t109.5 40.5q67 0 108.5 -40.5t41.5 -105.5v-101q0 -71 -50 -96q50 -27 50 -97v-106zM212 402v129q0 15 -9.5 24t-23.5 9q-15 0 -24.5 -9
t-9.5 -24v-129q0 -14 9.5 -23.5t24.5 -9.5q14 0 23.5 9.5t9.5 23.5zM212 135v134q0 15 -9.5 24t-23.5 9q-15 0 -24.5 -9t-9.5 -24v-134q0 -15 9.5 -24t24.5 -9q14 0 23.5 9t9.5 24z" />
    <glyph glyph-name="nine" unicode="9" horiz-adv-x="353" 
d="M324 142q0 -68 -42.5 -111.5t-110.5 -43.5q-64 0 -103 43t-39 100v63h104v-53q0 -38 36 -38q39 0 39 34v156q-31 -38 -80 -38q-46 0 -72.5 29t-26.5 75v166q0 68 40.5 111t107.5 43t107 -43t40 -111v-382zM208 371v164q0 12 -8.5 20.5t-22.5 8.5q-15 0 -23.5 -8.5
t-8.5 -20.5v-164q0 -12 8.5 -20t23.5 -8q14 0 22.5 8t8.5 20z" />
    <glyph glyph-name="colon" unicode=":" horiz-adv-x="141" 
d="M118 306h-95v130h95v-130zM118 0h-95v129h95v-129z" />
    <glyph glyph-name="semicolon" unicode=";" horiz-adv-x="141" 
d="M118 306h-95v130h95v-130zM118 12q0 -43 -26 -71.5t-69 -28.5v28q45 0 45 60h-45v130h95v-118z" />
    <glyph glyph-name="less" unicode="&#x3c;" horiz-adv-x="423" 
d="M352 125l-301 197v23l301 196v-97l-167 -111l167 -111v-97z" />
    <glyph glyph-name="equal" unicode="=" horiz-adv-x="288" 
d="M269 378h-250v81h250v-81zM269 225h-250v81h250v-81z" />
    <glyph glyph-name="greater" unicode="&#x3e;" horiz-adv-x="423" 
d="M372 321l-301 -196v97l167 111l-167 112v97l301 -197v-24z" />
    <glyph glyph-name="question" unicode="?" horiz-adv-x="311" 
d="M296 523q0 -106 -81 -208q-43 -52 -43 -133h-76q0 58 11.5 102.5t44.5 113.5q33 66 33 108q0 58 -34 58t-34 -42v-69h-103v80q0 63 36 104.5t102 41.5q74 0 109 -43t35 -113zM178 0h-89v115h89v-115z" />
    <glyph glyph-name="at" unicode="@" horiz-adv-x="531" 
d="M512 334q0 -81 -38.5 -138.5t-105.5 -57.5q-77 0 -74 74q-12 -31 -36 -48.5t-50 -17.5q-32 0 -52 25t-20 68q0 67 39 129t95 62q22 0 36.5 -13t16.5 -35l13 42h70l-50 -175q-20 -70 28 -70q35 0 59.5 43.5t24.5 113.5q0 96 -54.5 155t-139.5 59q-90 0 -150 -76t-60 -188
q0 -113 59.5 -185t150.5 -72q84 0 142 56l24 -31q-66 -66 -166 -66q-109 0 -182 82.5t-73 215.5q0 131 74 218.5t181 87.5q48 0 88 -15.5t67 -41.5t46.5 -60t28 -69.5t8.5 -71.5zM312 345q-2 37 -28 37q-33 0 -58 -49.5t-25 -90.5q0 -46 31 -46q19 0 34 18t23 47z" />
    <glyph glyph-name="A" unicode="A" horiz-adv-x="343" 
d="M341 0h-129l-9 107h-76l-11 -107h-116l97 666h148zM192 211l-22 259l-29 -259h51z" />
    <glyph glyph-name="B" unicode="B" horiz-adv-x="357" 
d="M334 124q0 -62 -35.5 -93t-87.5 -31h-182v666h182q52 0 87.5 -31t35.5 -93v-111q0 -73 -61 -92q61 -24 61 -92v-123zM213 412v116q0 30 -23 30h-32v-176h32q23 0 23 30zM213 137v120q0 30 -23 30h-32v-180h32q23 0 23 30z" />
    <glyph glyph-name="C" unicode="C" horiz-adv-x="356" 
d="M338 141q0 -69 -40 -111.5t-108 -42.5q-71 0 -119 45t-48 115v372q0 70 48 115t119 45q68 0 108 -42.5t40 -111.5v-101h-112v103q0 35 -36 35t-36 -35v-388q0 -35 36 -35t36 35v104h112v-102z" />
    <glyph glyph-name="D" unicode="D" horiz-adv-x="372" 
d="M348 147q0 -72 -42.5 -109.5t-110.5 -37.5h-166v666h166q67 0 110 -41t43 -114v-364zM220 153v359q0 43 -36 43h-26v-444h26q36 0 36 42z" />
    <glyph glyph-name="E" unicode="E" horiz-adv-x="317" 
d="M300 0h-271v666h271v-113h-143v-159h94v-104h-94v-173h143v-117z" />
    <glyph glyph-name="F" unicode="F" horiz-adv-x="300" 
d="M292 557h-135v-166h96v-109h-96v-282h-128v666h263v-109z" />
    <glyph glyph-name="G" unicode="G" horiz-adv-x="369" 
d="M347 0h-74l-13 45q-13 -27 -39 -42.5t-55 -15.5q-64 0 -103 42t-39 108v392q0 61 45.5 105t115.5 44q69 0 113 -44t44 -105v-110h-121v112q0 31 -34 31q-33 0 -33 -31v-399q0 -14 9 -23.5t25 -9.5t25.5 9t9.5 24v109h-34v90h158v-331z" />
    <glyph glyph-name="H" unicode="H" horiz-adv-x="388" 
d="M359 0h-128v265h-73v-265h-129v666h129v-283h73v283h128v-666z" />
    <glyph glyph-name="I" unicode="I" horiz-adv-x="187" 
d="M158 0h-129v666h129v-666z" />
    <glyph glyph-name="J" unicode="J" horiz-adv-x="344" 
d="M318 138q0 -67 -43.5 -109t-111.5 -42t-111 42t-43 109v127h121v-132q0 -13 8.5 -21t21.5 -8t21.5 8t8.5 21v533h128v-528z" />
    <glyph glyph-name="K" unicode="K" horiz-adv-x="367" 
d="M363 0h-129l-49 259l-27 -91v-168h-129v666h129v-290l73 290h125l-81 -280z" />
    <glyph glyph-name="L" unicode="L" 
d="M292 0h-263v666h128v-552h135v-114z" />
    <glyph glyph-name="M" unicode="M" horiz-adv-x="504" 
d="M475 0h-123v478l-21 -158l-46 -320h-82l-42 320l-19 158v-478h-113v666h169l41 -261l15 -135l15 135l40 261h166v-666z" />
    <glyph glyph-name="N" unicode="N" horiz-adv-x="390" 
d="M362 0h-106l-85 273l-30 93v-366h-113v666h118l77 -273l27 -94v367h112v-666z" />
    <glyph glyph-name="O" unicode="O" horiz-adv-x="371" 
d="M347 141q0 -67 -46.5 -110.5t-114.5 -43.5q-69 0 -115.5 43.5t-46.5 110.5v384q0 67 46.5 110t115.5 43t115 -43t46 -110v-384zM216 133v400q0 13 -8.5 21t-21.5 8t-22 -8t-9 -21v-400q0 -13 9 -21t22 -8t21.5 8t8.5 21z" />
    <glyph glyph-name="P" unicode="P" horiz-adv-x="351" 
d="M334 384q0 -66 -36 -99.5t-90 -33.5h-50v-251h-129v666h179q54 0 90 -33.5t36 -99.5v-149zM213 379v149q0 30 -23 30h-32v-208h32q23 0 23 29z" />
    <glyph glyph-name="Q" unicode="Q" horiz-adv-x="373" 
d="M380 0q-20 -13 -51 -13q-39 0 -64 29q-36 -29 -88 -29q-64 0 -108.5 43.5t-44.5 110.5v383q0 67 46.5 110.5t115.5 43.5q68 0 114.5 -43.5t46.5 -110.5v-375q0 -31 -9 -52q10 -11 42 -11v-86zM216 179v354q0 13 -8.5 21t-21.5 8t-22 -8t-9 -21v-400q0 -13 9 -21t22 -8
q12 0 18 5l-24 23z" />
    <glyph glyph-name="R" unicode="R" horiz-adv-x="362" 
d="M354 0h-108q-14 0 -22.5 33.5t-8.5 69.5v133q0 14 -7 24.5t-20 10.5h-30v-271h-129v666h178q52 0 90 -33t38 -96v-133q0 -51 -53 -82q55 -30 55 -82v-129q0 -48 17 -108v-3zM212 400v128q0 30 -22 30h-32v-188h32q22 0 22 30z" />
    <glyph glyph-name="S" unicode="S" horiz-adv-x="346" 
d="M330 155q0 -77 -44.5 -122.5t-112.5 -45.5q-74 0 -116 41.5t-42 115.5v58h111v-62q0 -45 41 -45q39 0 39 44q0 37 -18 68.5t-59 82.5q-111 124 -111 219q0 72 42 120.5t119 48.5q65 0 104.5 -43t39.5 -113v-58h-111v66q0 18 -9 28t-24 10t-26 -10.5t-11 -28.5
q0 -19 3 -33.5t12.5 -31.5t14.5 -25t23 -31t25 -32q35 -42 54.5 -69t37.5 -69.5t18 -82.5z" />
    <glyph glyph-name="T" unicode="T" horiz-adv-x="324" 
d="M318 549h-92v-549h-128v549h-92v117h312v-117z" />
    <glyph glyph-name="U" unicode="U" horiz-adv-x="368" 
d="M341 136q0 -64 -43.5 -106.5t-111.5 -42.5q-67 0 -112.5 43t-45.5 106v530h129v-533q0 -13 8.5 -21t20.5 -8q14 0 22.5 8t8.5 21v533h124v-530z" />
    <glyph glyph-name="V" unicode="V" horiz-adv-x="348" 
d="M349 666l-114 -666h-123l-112 666h130l48 -420l49 420h122z" />
    <glyph glyph-name="W" unicode="W" horiz-adv-x="503" 
d="M507 666l-105 -666h-109l-43 346l-47 -346h-106l-98 666h125l42 -405l46 405h92l42 -405l46 405h115z" />
    <glyph glyph-name="X" unicode="X" horiz-adv-x="355" 
d="M349 0h-131l-45 208l-53 -208h-122l102 331l-94 335h130l43 -220l52 220h121l-100 -318z" />
    <glyph glyph-name="Y" unicode="Y" horiz-adv-x="354" 
d="M357 666l-119 -395v-271h-128v271l-111 395h129l54 -249l49 249h126z" />
    <glyph glyph-name="Z" unicode="Z" horiz-adv-x="316" 
d="M306 631l-153 -515h146v-116h-294v35l155 518h-145v113h291v-35z" />
    <glyph glyph-name="bracketleft" unicode="[" horiz-adv-x="248" 
d="M249 -133h-171v875h171v-68h-97v-740h97v-67z" />
    <glyph glyph-name="backslash" unicode="\" horiz-adv-x="238" 
d="M240 -64h-63l-173 793h63z" />
    <glyph glyph-name="bracketright" unicode="]" horiz-adv-x="248" 
d="M176 -133h-172v67h97v740h-97v68h172v-875z" />
    <glyph glyph-name="asciicircum" unicode="^" horiz-adv-x="243" 
d="M232 538q-19 -8 -39 -8q-60 0 -74 76q-16 -76 -75 -76q-15 0 -34 8v29q22 0 43 25.5t32 73.5h72q11 -48 32 -73.5t43 -25.5v-29z" />
    <glyph glyph-name="underscore" unicode="_" 
d="M299 -84h-299v84h299v-84z" />
    <glyph glyph-name="grave" unicode="`" horiz-adv-x="157" 
d="M132 541h-54l-72 137h93z" />
    <glyph glyph-name="a" unicode="a" horiz-adv-x="291" 
d="M280 -8h-21q-53 0 -75 54q-24 -54 -82 -54q-39 0 -64 32t-25 87v28q0 61 35 98.5t111 69.5v78q0 25 -20 25q-8 0 -13.5 -7t-5.5 -18v-51h-93v38q0 58 30.5 93t88.5 35q55 0 85 -36.5t30 -95.5v-273q0 -22 19 -25v-78zM159 104v127q-46 -27 -46 -73v-51q0 -31 24 -31
q22 0 22 28z" />
    <glyph glyph-name="b" unicode="b" horiz-adv-x="305" 
d="M281 101q0 -48 -22.5 -78.5t-63.5 -30.5q-50 0 -75 46l-8 -38h-84v666h105v-214q26 48 70 48q33 0 55.5 -31t22.5 -74v-294zM177 112v267q0 12 -6 20t-15 8q-10 0 -16.5 -8t-6.5 -20v-267q0 -12 6.5 -20t16.5 -8q9 0 15 8t6 20z" />
    <glyph glyph-name="c" unicode="c" horiz-adv-x="283" 
d="M266 129q0 -63 -31.5 -100t-84.5 -37q-54 0 -89.5 37.5t-35.5 99.5v233q0 62 35.5 100t89.5 38q53 0 84.5 -37.5t31.5 -100.5v-56h-87v71q0 33 -25 33q-27 0 -27 -33v-263q0 -33 27 -33q25 0 25 33v71h87v-56z" />
    <glyph glyph-name="d" unicode="d" horiz-adv-x="305" 
d="M277 0h-86l-5 38q-25 -46 -75 -46q-41 0 -63.5 30.5t-22.5 78.5v294q0 42 24 73.5t57 31.5q35 0 66 -37v203h105v-666zM172 112v267q0 12 -6 20t-16 8t-16 -8t-6 -20v-267q0 -12 6 -20t16 -8t16 8t6 20z" />
    <glyph glyph-name="e" unicode="e" horiz-adv-x="294" 
d="M272 126q0 -59 -34.5 -96.5t-87.5 -37.5q-54 0 -89.5 37.5t-35.5 96.5v239q0 59 35.5 97t89.5 38q53 0 87.5 -38t34.5 -97v-135h-144v-119q0 -30 24 -30q25 0 25 30v71h95v-56zM174 284v97q0 12 -6.5 20.5t-16.5 8.5t-16.5 -8.5t-6.5 -20.5v-97h46z" />
    <glyph glyph-name="f" unicode="f" horiz-adv-x="221" 
d="M214 397h-52v-397h-105v397h-44v91h44v35q0 143 131 143h24v-86h-11q-23 0 -32 -10.5t-9 -33.5v-48h54v-91z" />
    <glyph glyph-name="g" unicode="g" horiz-adv-x="302" 
d="M314 503q0 -30 -12 -46.5t-32 -16.5q-10 0 -26 8q31 -34 31 -80v-60q0 -57 -34 -92.5t-90 -35.5q-16 0 -21 2q-26 0 -26 -30q0 -29 53 -29q67 0 100.5 -31.5t33.5 -88.5v-42q0 -62 -35.5 -96t-101.5 -34q-61 0 -98.5 30.5t-37.5 83.5v40q0 21 11.5 41t28.5 31
q-40 18 -40 67q0 28 18.5 50t45.5 25q-26 9 -41 41.5t-15 70.5v60q0 55 36 92t89 37q10 0 24.5 -2.5t16.5 -2.5q26 0 34 11t8 34h77q3 -25 3 -37zM175 287v98q0 12 -7 20t-17 8q-11 0 -18 -8t-7 -20v-98q0 -12 7 -19.5t18 -7.5t17.5 7.5t6.5 19.5zM197 -47v49q0 36 -41 36
q-39 0 -39 -36v-49q0 -35 39 -35q19 0 30 9.5t11 25.5z" />
    <glyph glyph-name="h" unicode="h" horiz-adv-x="310" 
d="M283 0h-105v379q0 12 -6.5 20t-15.5 8t-15.5 -8t-6.5 -20v-379h-106v666h106v-217q26 50 74 50q34 0 54.5 -26.5t20.5 -70.5v-402z" />
    <glyph glyph-name="i" unicode="i" horiz-adv-x="162" 
d="M132 545h-102v104h102v-104zM134 0h-106v491h106v-491z" />
    <glyph glyph-name="j" unicode="j" horiz-adv-x="161" 
d="M132 545h-102v104h102v-104zM134 -19q0 -144 -132 -144h-23v87h10q23 0 31 10t8 33v524h106v-510z" />
    <glyph glyph-name="k" unicode="k" horiz-adv-x="301" 
d="M295 0h-102l-40 187l-19 -55v-132h-106v666h106v-387l54 213h100l-64 -218z" />
    <glyph glyph-name="l" unicode="l" horiz-adv-x="162" 
d="M134 0h-106v666h106v-666z" />
    <glyph glyph-name="m" unicode="m" horiz-adv-x="460" 
d="M434 0h-105v375q0 12 -6.5 20t-16.5 8q-9 0 -15.5 -8t-6.5 -20v-375h-105v379q0 12 -7 20t-16 8t-15.5 -8t-6.5 -20v-379h-106v491h94l10 -56q17 65 70 65q26 0 44.5 -19t27.5 -51q18 70 77 70q38 0 60.5 -29t22.5 -77v-394z" />
    <glyph glyph-name="n" unicode="n" horiz-adv-x="310" 
d="M283 0h-105v379q0 12 -6.5 20t-15.5 8t-15.5 -8t-6.5 -20v-379h-106v491h96l4 -50q10 26 31.5 42t46.5 16q36 0 56.5 -27t20.5 -70v-402z" />
    <glyph glyph-name="o" unicode="o" 
d="M275 129q0 -62 -35.5 -99.5t-89.5 -37.5t-89.5 37.5t-35.5 99.5v233q0 62 35.5 100t89.5 38t89.5 -38t35.5 -100v-233zM172 109v273q0 12 -6.5 20t-15.5 8q-10 0 -16.5 -8t-6.5 -20v-273q0 -12 6.5 -20t16.5 -8q9 0 15.5 8t6.5 20z" />
    <glyph glyph-name="p" unicode="p" horiz-adv-x="305" 
d="M281 96q0 -43 -23.5 -74t-57.5 -31q-36 0 -67 37v-188h-105v651h87l5 -38q25 46 75 46q41 0 63.5 -30.5t22.5 -78.5v-294zM177 112v267q0 12 -6 20t-15 8q-10 0 -16.5 -8t-6.5 -20v-267q0 -12 6.5 -20t16.5 -8q9 0 15 8t6 20z" />
    <glyph glyph-name="q" unicode="q" horiz-adv-x="305" 
d="M277 -160h-105v199q-26 -48 -69 -48q-33 0 -55.5 31t-22.5 74v294q0 48 22.5 78.5t63.5 30.5q50 0 75 -46l7 38h84v-651zM172 112v267q0 12 -6 20t-16 8t-16 -8t-6 -20v-267q0 -12 6 -20t16 -8t16 8t6 20z" />
    <glyph glyph-name="r" unicode="r" horiz-adv-x="233" 
d="M220 379q-86 11 -86 -57v-322h-106v491h92l6 -67q9 41 34 60.5t60 12.5v-118z" />
    <glyph glyph-name="s" unicode="s" horiz-adv-x="277" 
d="M263 128q0 -59 -30.5 -97.5t-90.5 -38.5q-58 0 -91 35.5t-33 96.5v31h91v-41q0 -35 27 -35q30 0 30 32q0 17 -6.5 31.5t-15 23.5t-26.5 26.5t-31 32.5q-67 71 -67 141q0 64 33.5 99t87.5 35t86.5 -38t32.5 -93v-31h-90v39q0 33 -26 33t-26 -30q0 -16 7 -31.5t15 -26
t27 -33.5q3 -3 15.5 -14.5t17.5 -16t15.5 -16t15.5 -18.5t12.5 -19t11 -23t6 -25t2.5 -29z" />
    <glyph glyph-name="t" unicode="t" horiz-adv-x="209" 
d="M207 397h-52v-258q0 -88 19 -139h-105q-19 49 -19 139v258h-45v91h49v79l101 26v-105h52v-91z" />
    <glyph glyph-name="u" unicode="u" horiz-adv-x="311" 
d="M282 0h-92l-4 50q-11 -27 -33 -42.5t-47 -15.5q-36 0 -57 27t-21 70v402h105v-379q0 -12 6.5 -20t16.5 -8q9 0 15.5 8t6.5 20v379h104v-491z" />
    <glyph glyph-name="v" unicode="v" horiz-adv-x="276" 
d="M271 491l-89 -491h-87l-89 491h103l25 -213l8 -84l8 84l25 213h96z" />
    <glyph glyph-name="w" unicode="w" horiz-adv-x="415" 
d="M411 491l-84 -491h-84l-26 184l-9 95l-9 -95l-28 -184h-83l-83 491h104l20 -210l9 -100l8 100l24 210h84l23 -210l9 -100l8 100l23 210h94z" />
    <glyph glyph-name="x" unicode="x" horiz-adv-x="292" 
d="M284 0h-106l-33 152l-34 -152h-105l76 241l-76 250h106l34 -155l33 155h105l-76 -232z" />
    <glyph glyph-name="y" unicode="y" horiz-adv-x="275" 
d="M272 491l-90 -509q-15 -80 -41.5 -112.5t-94.5 -32.5h-21v87h16q20 0 29 9t14 35l7 56l-84 467h102l26 -213l8 -84l7 84l25 213h97z" />
    <glyph glyph-name="z" unicode="z" horiz-adv-x="254" 
d="M240 449l-111 -345h106v-104h-223v42l113 350h-104v99h219v-42z" />
    <glyph glyph-name="braceleft" unicode="{" horiz-adv-x="270" 
d="M234 -133h-36q-65 0 -100 38.5t-35 96.5q0 43 18 91t36 85.5t18 55.5q0 24 -12.5 34t-44.5 10h-32v53h32q32 0 44.5 10t12.5 33q0 18 -18 55.5t-36 85.5t-18 91q0 59 35 97.5t100 38.5h36v-63h-19q-56 0 -56 -75q0 -40 25 -107.5t25 -91.5q0 -39 -18 -61.5t-64 -33.5
q45 -11 63.5 -33.5t18.5 -61.5q0 -24 -25 -97t-25 -113q0 -76 56 -76h19v-62z" />
    <glyph glyph-name="bar" unicode="|" horiz-adv-x="120" 
d="M91 -64h-62v793h62v-793z" />
    <glyph glyph-name="braceright" unicode="}" horiz-adv-x="270" 
d="M224 278h-32q-32 0 -44.5 -10t-12.5 -34q0 -18 18 -55.5t36 -85.5t18 -91q0 -58 -35 -96.5t-100 -38.5h-36v62h19q56 0 56 76q0 40 -25 113t-25 97q0 39 18.5 61.5t63.5 33.5q-46 11 -64 33.5t-18 61.5q0 24 25 91.5t25 107.5q0 75 -56 75h-19v63h36q65 0 100 -38.5
t35 -97.5q0 -43 -18 -91t-36 -85.5t-18 -55.5q0 -23 12.5 -33t44.5 -10h32v-53z" />
    <glyph glyph-name="asciitilde" unicode="~" horiz-adv-x="243" 
d="M233 352q0 -81 -66 -81q-21 0 -50 21t-38 21q-19 0 -19 -21v-18h-39q-10 19 -10 39q0 38 16.5 59.5t48.5 21.5q22 0 51 -21t38 -21q19 0 19 21v19h39q10 -19 10 -40z" />
    <glyph glyph-name="nbspace" unicode="&#xa0;" horiz-adv-x="63" 
 />
    <glyph glyph-name="exclamdown" unicode="&#xa1;" horiz-adv-x="167" 
d="M128 376h-89v115h89v-115zM137 -175h-106v289l36 200h34l36 -200v-289z" />
    <glyph glyph-name="cent" unicode="&#xa2;" horiz-adv-x="304" 
d="M121 582v84h71v-85q38 -11 59.5 -46t21.5 -86v-56h-86v72q0 32 -26 32t-26 -32v-264q0 -32 26 -32t26 32v71h86v-56q0 -51 -21.5 -85.5t-59.5 -45.5v-85h-71v84q-40 12 -64.5 47t-24.5 85v233q0 50 24.5 85.5t64.5 47.5z" />
    <glyph glyph-name="sterling" unicode="&#xa3;" horiz-adv-x="418" 
d="M399 122q0 -60 -30 -97.5t-88 -37.5q-34 0 -65.5 13.5t-49.5 34.5q-29 -48 -83 -48q-37 0 -60.5 23.5t-23.5 57.5q0 37 26 61.5t71 24.5q30 0 54 -9q14 29 14 89q0 27 -10 52h-102v83h71q-29 76 -29 139q0 72 41 121.5t112 49.5q65 0 98.5 -45t33.5 -103v-68h-103v59
q0 36 -29 36t-29 -36q0 -62 31 -153h107v-83h-92q2 -18 2 -26q0 -76 -56 -145q31 -22 54 -22q41 0 41 48v58h94v-77zM122 78q-14 17 -35 17q-23 0 -23 -22q0 -20 23 -20q26 0 35 25z" />
    <glyph glyph-name="currency" unicode="&#xa4;" horiz-adv-x="350" 
d="M145 374h135v-82h-135v-153q0 -35 37 -35q36 0 36 35v80h111v-78q0 -69 -40 -111.5t-108 -42.5q-70 0 -114 44.5t-44 115.5v372q0 71 44 115.5t114 44.5q68 0 108 -42.5t40 -111.5v-78h-111v80q0 35 -36 35q-37 0 -37 -35v-153z" />
    <glyph glyph-name="yen" unicode="&#xa5;" horiz-adv-x="380" 
d="M246 276v-57h93v-81h-93v-138h-119v138h-89v81h89v57h-89v81h67l-83 309h120l52 -242l48 242h117l-90 -309h70v-81h-93z" />
    <glyph glyph-name="section" unicode="&#xa7;" horiz-adv-x="375" 
d="M353 259q0 -89 -62 -141q31 -37 44.5 -65.5t13.5 -69.5q0 -64 -39.5 -108t-117.5 -44q-77 0 -124 39.5t-47 107.5v33h112v-39q0 -20 13 -32.5t38 -12.5q50 0 50 49q0 24 -21 47.5t-51 46t-60.5 48t-51.5 62.5t-21 79q0 86 62 135q-30 33 -44.5 62t-14.5 68q0 67 40.5 111
t115.5 44q72 0 114.5 -42.5t42.5 -104.5v-30h-111v37q0 38 -38 38q-42 0 -42 -39q0 -22 20.5 -45.5t50 -46t58.5 -48t49.5 -62t20.5 -77.5zM250 230q0 55 -95 115q-27 -19 -27 -60q0 -52 95 -112q27 19 27 57z" />
    <glyph glyph-name="dieresis" unicode="&#xa8;" horiz-adv-x="215" 
d="M201 550h-75v101h75v-101zM88 550h-74v101h74v-101z" />
    <glyph glyph-name="copyright" unicode="&#xa9;" horiz-adv-x="612" 
d="M592 319q0 -120 -82 -204.5t-204 -84.5t-204 84.5t-82 204.5q0 121 82 205t204 84t204 -84t82 -205zM547 319q0 105 -67.5 176.5t-173.5 71.5t-173.5 -71.5t-67.5 -176.5q0 -104 67.5 -175.5t173.5 -71.5t173.5 71.5t67.5 175.5zM402 263q0 -37 -25.5 -60t-67.5 -23
t-69 24t-27 61v109q0 37 27 60.5t69 23.5t67.5 -23t25.5 -60v-18h-43v18q0 19 -13 31.5t-36 12.5t-35 -13t-12 -33v-108q0 -19 12 -32.5t35 -13.5t36 12.5t13 32.5v18h43v-19z" />
    <glyph glyph-name="ordfeminine" unicode="&#xaa;" horiz-adv-x="272" 
d="M261 310h-26q-47 0 -66 42q-21 -42 -71 -42q-33 0 -54.5 23.5t-21.5 65.5v16q0 45 30 72t97 49v55q0 19 -17 19t-17 -19v-35h-80v26q0 44 26 70t77 26q47 0 73 -27.5t26 -72.5v-191q0 -17 24 -17v-60zM149 394v88q-40 -16 -40 -52v-33q0 -24 21 -24q19 0 19 21z" />
    <glyph glyph-name="guillemotleft" unicode="&#xab;" horiz-adv-x="376" 
d="M350 0h-42q-23 125 -115 162v63q92 37 115 162h42q0 -139 -55 -194q55 -54 55 -193zM179 0h-41q-23 125 -115 162v63q92 37 115 162h41q0 -139 -55 -194q55 -54 55 -193z" />
    <glyph glyph-name="logicalnot" unicode="&#xac;" horiz-adv-x="360" 
d="M318 254l-59 -59l-80 79l-79 -79l-58 58l79 79l-79 80l59 58l80 -79l79 79l58 -57l-80 -79z" />
    <glyph glyph-name="registered" unicode="&#xae;" horiz-adv-x="612" 
d="M592 319q0 -120 -82 -204.5t-204 -84.5t-204 84.5t-82 204.5q0 121 82 205t204 84t204 -84t82 -205zM547 319q0 105 -67.5 176.5t-173.5 71.5t-173.5 -71.5t-67.5 -176.5q0 -104 67.5 -175.5t173.5 -71.5t173.5 71.5t67.5 175.5zM417 186h-13q-28 0 -39 9.5t-11 34.5v33
q0 38 -35 38h-49v-112h-49v263h104q77 0 77 -71v-7q0 -48 -44 -56q22 -3 33.5 -18.5t11.5 -36.5v-29q0 -12 14 -12v-36zM352 371v11q0 32 -31 32h-51v-80h46q36 0 36 37z" />
    <glyph glyph-name="macron" unicode="&#xaf;" horiz-adv-x="216" 
d="M205 571h-193v65h193v-65z" />
    <glyph glyph-name="degree" unicode="&#xb0;" horiz-adv-x="236" 
d="M224 574q0 -42 -30 -73t-76 -31t-76 31t-30 73q0 43 30 74t76 31t76 -31t30 -74zM170 574q0 26 -14 41.5t-38 15.5t-38 -15.5t-14 -41.5q0 -25 14 -41t38 -16t38 16t14 41z" />
    <glyph glyph-name="plusminus" unicode="&#xb1;" horiz-adv-x="531" 
d="M507 0h-483v503h483v-503zM456 49v405h-381v-405h381z" />
    <glyph glyph-name="acute" unicode="&#xb4;" horiz-adv-x="157" 
d="M159 678l-72 -137h-54l33 137h93z" />
    <glyph glyph-name="paragraph" unicode="&#xb6;" horiz-adv-x="481" 
d="M444 -161h-64v732h-63v-732h-64v352h-35q-82 0 -136 63.5t-54 165.5v16q0 103 54 166.5t136 63.5h226v-827zM253 274v297h-17q-25 0 -39 -26.5t-14 -64.5v-127q0 -36 13.5 -57.5t39.5 -21.5h17z" />
    <glyph glyph-name="periodcentered" unicode="&#xb7;" horiz-adv-x="141" 
d="M118 268h-95v129h95v-129z" />
    <glyph glyph-name="cedilla" unicode="&#xb8;" horiz-adv-x="155" 
d="M163 -132q0 -31 -22.5 -53t-54.5 -22q-19 0 -31 9v26h12q30 0 30 29v28q0 28 -30 28q-14 0 -29 -15l-26 21l68 100l27 -21l-43 -62q8 6 29 6q32 0 51 -20.5t19 -53.5z" />
    <glyph glyph-name="ordmasculine" unicode="&#xba;" horiz-adv-x="252" 
d="M233 415q0 -48 -30 -76.5t-77 -28.5q-46 0 -76.5 28.5t-30.5 76.5v157q0 48 30.5 77t76.5 29q47 0 77 -29t30 -77v-157zM145 399v189q0 22 -19 22t-19 -22v-189q0 -21 19 -21t19 21z" />
    <glyph glyph-name="guillemotright" unicode="&#xbb;" horiz-adv-x="376" 
d="M352 162q-92 -37 -115 -162h-41q0 139 55 193q-55 55 -55 194h41q23 -125 115 -162v-63zM182 162q-92 -37 -115 -162h-42q0 139 55 193q-55 55 -55 194h42q23 -125 115 -162v-63z" />
    <glyph glyph-name="questiondown" unicode="&#xbf;" horiz-adv-x="296" 
d="M121 491h89v-115h-89v115zM2 -32q0 105 82 208q43 52 43 133h76q0 -58 -11.5 -102.5t-44.5 -113.5q-33 -66 -33 -108q0 -58 34 -58t34 42v69h103v-80q0 -63 -36 -104.5t-102 -41.5q-74 0 -109.5 43t-35.5 113z" />
    <glyph glyph-name="Agrave" unicode="&#xc0;" horiz-adv-x="343" 
d="M341 0h-129l-9 107h-76l-11 -107h-116l97 666h148zM192 211l-22 259l-29 -259h51zM196 701h-54l-72 137h93z" />
    <glyph glyph-name="Aacute" unicode="&#xc1;" horiz-adv-x="343" 
d="M341 0h-129l-9 107h-76l-11 -107h-116l97 666h148zM192 211l-22 259l-29 -259h51zM268 838l-72 -137h-54l33 137h93z" />
    <glyph glyph-name="Acircumflex" unicode="&#xc2;" horiz-adv-x="343" 
d="M341 0h-129l-9 107h-76l-11 -107h-116l97 666h148zM192 211l-22 259l-29 -259h51zM287 710q-21 -8 -39 -8q-61 0 -75 75q-14 -75 -75 -75q-15 0 -34 8v29q22 0 43.5 25.5t31.5 73.5h72q11 -48 32.5 -73.5t43.5 -25.5v-29z" />
    <glyph glyph-name="Atilde" unicode="&#xc3;" horiz-adv-x="343" 
d="M341 0h-129l-9 107h-76l-11 -107h-116l97 666h148zM192 211l-22 259l-29 -259h51zM283 791q0 -38 -17 -59t-49 -21q-21 0 -50 21t-38 21q-19 0 -19 -21v-18h-39q-10 19 -10 39q0 80 65 80q22 0 51 -20.5t38 -20.5q19 0 19 21v18h39q10 -19 10 -40z" />
    <glyph glyph-name="Adieresis" unicode="&#xc4;" horiz-adv-x="343" 
d="M341 0h-129l-9 107h-76l-11 -107h-116l97 666h148zM192 211l-22 259l-29 -259h51zM266 710h-75v101h75v-101zM153 710h-74v101h74v-101z" />
    <glyph glyph-name="Aring" unicode="&#xc5;" horiz-adv-x="343" 
d="M115 666q-13 21 -13 43q0 30 19.5 52t48.5 22t49 -22t20 -52q0 -22 -13 -43h19l96 -666h-129l-9 107h-76l-11 -107h-116l97 666h18zM204 709q0 42 -34 42q-33 0 -33 -42t33 -42q16 0 25 11.5t9 30.5zM192 211l-22 259l-29 -259h51z" />
    <glyph glyph-name="AE" unicode="&#xc6;" horiz-adv-x="504" 
d="M487 0h-272v107h-74l-19 -107h-122l151 666h336v-113h-143v-159h93v-104h-93v-173h143v-117zM215 211v262l-51 -262h51z" />
    <glyph glyph-name="Ccedilla" unicode="&#xc7;" horiz-adv-x="356" 
d="M154 -10q-58 11 -94.5 53.5t-36.5 103.5v372q0 70 48 115t119 45q68 0 108 -42.5t40 -111.5v-101h-112v103q0 35 -36 35t-36 -35v-388q0 -35 36 -35t36 35v104h112v-102q0 -68 -39 -110.5t-107 -43.5l-8 -13q-9 -12 -18 -25l-9 -13q8 6 30 6q32 0 50.5 -20.5t18.5 -53.5
q0 -31 -22.5 -53t-54.5 -22q-16 0 -31 9v26h13q30 0 30 29v28q0 28 -30 28q-14 0 -29 -15l-27 21z" />
    <glyph glyph-name="Egrave" unicode="&#xc8;" horiz-adv-x="317" 
d="M300 0h-271v666h271v-113h-143v-159h94v-104h-94v-173h143v-117zM188 701h-54l-72 137h93z" />
    <glyph glyph-name="Eacute" unicode="&#xc9;" horiz-adv-x="317" 
d="M300 0h-271v666h271v-113h-143v-159h94v-104h-94v-173h143v-117zM253 838l-72 -137h-54l33 137h93z" />
    <glyph glyph-name="Ecircumflex" unicode="&#xca;" horiz-adv-x="317" 
d="M300 0h-271v666h271v-113h-143v-159h94v-104h-94v-173h143v-117zM275 710q-21 -8 -39 -8q-61 0 -75 75q-14 -75 -75 -75q-15 0 -34 8v29q22 0 43.5 25.5t31.5 73.5h72q11 -48 32.5 -73.5t43.5 -25.5v-29z" />
    <glyph glyph-name="Edieresis" unicode="&#xcb;" horiz-adv-x="317" 
d="M300 0h-271v666h271v-113h-143v-159h94v-104h-94v-173h143v-117zM258 710h-75v101h75v-101zM145 710h-74v101h74v-101z" />
    <glyph glyph-name="Igrave" unicode="&#xcc;" horiz-adv-x="187" 
d="M158 0h-129v666h129v-666zM121 701h-54l-72 137h93z" />
    <glyph glyph-name="Iacute" unicode="&#xcd;" horiz-adv-x="187" 
d="M158 0h-129v666h129v-666zM190 838l-72 -137h-54l33 137h93z" />
    <glyph glyph-name="Icircumflex" unicode="&#xce;" horiz-adv-x="187" 
d="M158 0h-129v666h129v-666zM209 710q-21 -8 -39 -8q-61 0 -75 75q-14 -75 -75 -75q-15 0 -34 8v29q22 0 43.5 25.5t31.5 73.5h72q11 -48 32.5 -73.5t43.5 -25.5v-29z" />
    <glyph glyph-name="Idieresis" unicode="&#xcf;" horiz-adv-x="187" 
d="M158 0h-129v666h129v-666zM187 710h-75v101h75v-101zM74 710h-74v101h74v-101z" />
    <glyph glyph-name="Eth" unicode="&#xd0;" horiz-adv-x="382" 
d="M39 292h-46v82h46v292h166q67 0 110 -41t43 -114v-364q0 -72 -42.5 -109.5t-110.5 -37.5h-166v292zM168 374h31v-82h-31v-181h26q36 0 36 42v359q0 43 -36 43h-26v-181z" />
    <glyph glyph-name="Ntilde" unicode="&#xd1;" horiz-adv-x="390" 
d="M362 0h-106l-85 273l-30 93v-366h-113v666h118l77 -273l27 -94v367h112v-666zM307 791q0 -38 -17 -59t-49 -21q-21 0 -50 21t-38 21q-19 0 -19 -21v-18h-39q-10 19 -10 39q0 80 65 80q22 0 51 -20.5t38 -20.5q19 0 19 21v18h39q10 -19 10 -40z" />
    <glyph glyph-name="Ograve" unicode="&#xd2;" horiz-adv-x="371" 
d="M347 141q0 -67 -46.5 -110.5t-114.5 -43.5q-69 0 -115.5 43.5t-46.5 110.5v384q0 67 46.5 110t115.5 43t115 -43t46 -110v-384zM216 133v400q0 13 -8.5 21t-21.5 8t-22 -8t-9 -21v-400q0 -13 9 -21t22 -8t21.5 8t8.5 21zM214 701h-54l-72 137h93z" />
    <glyph glyph-name="Oacute" unicode="&#xd3;" horiz-adv-x="371" 
d="M347 141q0 -67 -46.5 -110.5t-114.5 -43.5q-69 0 -115.5 43.5t-46.5 110.5v384q0 67 46.5 110t115.5 43t115 -43t46 -110v-384zM216 133v400q0 13 -8.5 21t-21.5 8t-22 -8t-9 -21v-400q0 -13 9 -21t22 -8t21.5 8t8.5 21zM282 838l-72 -137h-54l33 137h93z" />
    <glyph glyph-name="Ocircumflex" unicode="&#xd4;" horiz-adv-x="371" 
d="M347 141q0 -67 -46.5 -110.5t-114.5 -43.5q-69 0 -115.5 43.5t-46.5 110.5v384q0 67 46.5 110t115.5 43t115 -43t46 -110v-384zM216 133v400q0 13 -8.5 21t-21.5 8t-22 -8t-9 -21v-400q0 -13 9 -21t22 -8t21.5 8t8.5 21zM299 710q-21 -8 -39 -8q-61 0 -75 75
q-14 -75 -75 -75q-15 0 -34 8v29q22 0 43.5 25.5t31.5 73.5h72q11 -48 32.5 -73.5t43.5 -25.5v-29z" />
    <glyph glyph-name="Otilde" unicode="&#xd5;" horiz-adv-x="371" 
d="M347 141q0 -67 -46.5 -110.5t-114.5 -43.5q-69 0 -115.5 43.5t-46.5 110.5v384q0 67 46.5 110t115.5 43t115 -43t46 -110v-384zM216 133v400q0 13 -8.5 21t-21.5 8t-22 -8t-9 -21v-400q0 -13 9 -21t22 -8t21.5 8t8.5 21zM295 791q0 -38 -17 -59t-49 -21q-21 0 -50 21
t-38 21q-19 0 -19 -21v-18h-39q-10 19 -10 39q0 80 65 80q22 0 51 -20.5t38 -20.5q19 0 19 21v18h39q10 -19 10 -40z" />
    <glyph glyph-name="Odieresis" unicode="&#xd6;" horiz-adv-x="371" 
d="M347 141q0 -67 -46.5 -110.5t-114.5 -43.5q-69 0 -115.5 43.5t-46.5 110.5v384q0 67 46.5 110t115.5 43t115 -43t46 -110v-384zM216 133v400q0 13 -8.5 21t-21.5 8t-22 -8t-9 -21v-400q0 -13 9 -21t22 -8t21.5 8t8.5 21zM280 710h-75v101h75v-101zM167 710h-74v101h74
v-101z" />
    <glyph glyph-name="multiply" unicode="&#xd7;" horiz-adv-x="360" 
d="M318 254l-59 -59l-80 79l-79 -79l-58 58l79 79l-79 80l59 58l80 -79l79 79l58 -57l-80 -79z" />
    <glyph glyph-name="Oslash" unicode="&#xd8;" horiz-adv-x="371" 
d="M39 77q-15 29 -15 64v384q0 67 46 110t115 43q63 0 108 -36l27 54l49 -25l-37 -81q15 -32 15 -65v-384q0 -67 -46.5 -110.5t-115.5 -43.5q-64 0 -107 37l-28 -54l-48 25zM155 337l61 138v58q0 13 -9 21t-22 8t-21.5 -8t-8.5 -21v-196zM216 329l-61 -138v-58
q0 -13 8.5 -21t21.5 -8t22 8t9 21v196z" />
    <glyph glyph-name="Ugrave" unicode="&#xd9;" horiz-adv-x="368" 
d="M341 136q0 -64 -43.5 -106.5t-111.5 -42.5q-67 0 -112.5 43t-45.5 106v530h129v-533q0 -13 8.5 -21t20.5 -8q14 0 22.5 8t8.5 21v533h124v-530zM213 701h-54l-72 137h93z" />
    <glyph glyph-name="Uacute" unicode="&#xda;" horiz-adv-x="368" 
d="M341 136q0 -64 -43.5 -106.5t-111.5 -42.5q-67 0 -112.5 43t-45.5 106v530h129v-533q0 -13 8.5 -21t20.5 -8q14 0 22.5 8t8.5 21v533h124v-530zM285 838l-72 -137h-54l33 137h93z" />
    <glyph glyph-name="Ucircumflex" unicode="&#xdb;" horiz-adv-x="368" 
d="M341 136q0 -64 -43.5 -106.5t-111.5 -42.5q-67 0 -112.5 43t-45.5 106v530h129v-533q0 -13 8.5 -21t20.5 -8q14 0 22.5 8t8.5 21v533h124v-530zM300 710q-21 -8 -39 -8q-61 0 -75 75q-14 -75 -75 -75q-15 0 -34 8v29q22 0 43.5 25.5t31.5 73.5h72q11 -48 32.5 -73.5
t43.5 -25.5v-29z" />
    <glyph glyph-name="Udieresis" unicode="&#xdc;" horiz-adv-x="368" 
d="M341 136q0 -64 -43.5 -106.5t-111.5 -42.5q-67 0 -112.5 43t-45.5 106v530h129v-533q0 -13 8.5 -21t20.5 -8q14 0 22.5 8t8.5 21v533h124v-530zM280 710h-75v101h75v-101zM167 710h-74v101h74v-101z" />
    <glyph glyph-name="Yacute" unicode="&#xdd;" horiz-adv-x="354" 
d="M357 666l-119 -395v-271h-128v271l-111 395h129l54 -249l49 249h126zM276 838l-72 -137h-54l33 137h93z" />
    <glyph glyph-name="Thorn" unicode="&#xde;" horiz-adv-x="351" 
d="M334 273q0 -66 -36 -99.5t-90 -33.5h-50v-140h-129v666h129v-111h50q54 0 90 -33.5t36 -99.5v-149zM213 269v149q0 29 -23 29h-32v-208h32q23 0 23 30z" />
    <glyph glyph-name="germandbls" unicode="&#xdf;" horiz-adv-x="321" 
d="M295 114q0 -58 -28 -90t-75 -32q-20 0 -33 11v61q31 0 31 41v161q0 24 -6 35t-23 11v90q39 0 39 46v83q0 46 -33 46t-33 -46v-531h-106v511q0 72 35.5 113.5t98.5 41.5t96.5 -41.5t33.5 -113.5v-57q0 -74 -48 -103q51 -27 51 -104v-133z" />
    <glyph glyph-name="agrave" unicode="&#xe0;" horiz-adv-x="291" 
d="M280 -8h-21q-53 0 -75 54q-24 -54 -82 -54q-39 0 -64 32t-25 87v28q0 61 35 98.5t111 69.5v78q0 25 -20 25q-8 0 -13.5 -7t-5.5 -18v-51h-93v38q0 58 30.5 93t88.5 35q55 0 85 -36.5t30 -95.5v-273q0 -22 19 -25v-78zM159 104v127q-46 -27 -46 -73v-51q0 -31 24 -31
q22 0 22 28zM177 541h-54l-72 137h93z" />
    <glyph glyph-name="aacute" unicode="&#xe1;" horiz-adv-x="291" 
d="M280 -8h-21q-53 0 -75 54q-24 -54 -82 -54q-39 0 -64 32t-25 87v28q0 61 35 98.5t111 69.5v78q0 25 -20 25q-8 0 -13.5 -7t-5.5 -18v-51h-93v38q0 58 30.5 93t88.5 35q55 0 85 -36.5t30 -95.5v-273q0 -22 19 -25v-78zM159 104v127q-46 -27 -46 -73v-51q0 -31 24 -31
q22 0 22 28zM245 678l-72 -137h-54l33 137h93z" />
    <glyph glyph-name="acircumflex" unicode="&#xe2;" horiz-adv-x="291" 
d="M280 -8h-21q-53 0 -75 54q-24 -54 -82 -54q-39 0 -64 32t-25 87v28q0 61 35 98.5t111 69.5v78q0 25 -20 25q-8 0 -13.5 -7t-5.5 -18v-51h-93v38q0 58 30.5 93t88.5 35q55 0 85 -36.5t30 -95.5v-273q0 -22 19 -25v-78zM159 104v127q-46 -27 -46 -73v-51q0 -31 24 -31
q22 0 22 28zM259 550q-21 -8 -39 -8q-61 0 -75 75q-14 -75 -75 -75q-15 0 -34 8v29q22 0 43.5 25.5t31.5 73.5h72q11 -48 32.5 -73.5t43.5 -25.5v-29z" />
    <glyph glyph-name="atilde" unicode="&#xe3;" horiz-adv-x="291" 
d="M280 -8h-21q-53 0 -75 54q-24 -54 -82 -54q-39 0 -64 32t-25 87v28q0 61 35 98.5t111 69.5v78q0 25 -20 25q-8 0 -13.5 -7t-5.5 -18v-51h-93v38q0 58 30.5 93t88.5 35q55 0 85 -36.5t30 -95.5v-273q0 -22 19 -25v-78zM159 104v127q-46 -27 -46 -73v-51q0 -31 24 -31
q22 0 22 28zM255 631q0 -38 -17 -59t-49 -21q-21 0 -50 21t-38 21q-19 0 -19 -21v-18h-39q-10 19 -10 39q0 80 65 80q22 0 51 -20.5t38 -20.5q19 0 19 21v18h39q10 -19 10 -40z" />
    <glyph glyph-name="adieresis" unicode="&#xe4;" horiz-adv-x="291" 
d="M280 -8h-21q-53 0 -75 54q-24 -54 -82 -54q-39 0 -64 32t-25 87v28q0 61 35 98.5t111 69.5v78q0 25 -20 25q-8 0 -13.5 -7t-5.5 -18v-51h-93v38q0 58 30.5 93t88.5 35q55 0 85 -36.5t30 -95.5v-273q0 -22 19 -25v-78zM159 104v127q-46 -27 -46 -73v-51q0 -31 24 -31
q22 0 22 28zM240 550h-75v101h75v-101zM127 550h-74v101h74v-101z" />
    <glyph glyph-name="aring" unicode="&#xe5;" horiz-adv-x="291" 
d="M280 -8h-21q-53 0 -75 54q-24 -54 -82 -54q-39 0 -64 32t-25 87v28q0 61 35 98.5t111 69.5v78q0 25 -20 25q-8 0 -13.5 -7t-5.5 -18v-51h-93v38q0 58 30.5 93t88.5 35q55 0 85 -36.5t30 -95.5v-273q0 -22 19 -25v-78zM159 104v127q-46 -27 -46 -73v-51q0 -31 24 -31
q22 0 22 28zM212 618q0 -30 -20 -52t-49 -22t-48.5 22t-19.5 52t19.5 51.5t48.5 21.5t49 -21.5t20 -51.5zM177 618q0 42 -34 42q-33 0 -33 -42t33 -42q34 0 34 42z" />
    <glyph glyph-name="ae" unicode="&#xe6;" horiz-adv-x="436" 
d="M415 126q0 -60 -30.5 -97t-83.5 -37q-57 0 -88 41q-30 -41 -99 -41q-48 0 -74.5 32.5t-26.5 86.5v28q0 61 35 98.5t111 69.5v75q0 25 -20 25t-20 -25v-48h-94v38q0 57 30.5 92.5t80.5 35.5q47 0 78 -42q14 19 38 30.5t49 11.5q52 0 83 -37.5t31 -97.5v-135h-144v-116
q0 -30 25 -30q24 0 24 30v68h95v-56zM317 284v94q0 12 -6.5 20.5t-16.5 8.5t-16.5 -8.5t-6.5 -20.5v-94h46zM159 107v124q-46 -27 -46 -73v-48q0 -32 24 -32q22 0 22 29z" />
    <glyph glyph-name="ccedilla" unicode="&#xe7;" horiz-adv-x="283" 
d="M121 -5q-43 9 -69.5 44.5t-26.5 89.5v233q0 62 35.5 100t89.5 38q53 0 84.5 -37.5t31.5 -100.5v-56h-87v71q0 33 -25 33q-27 0 -27 -33v-263q0 -33 27 -33q25 0 25 33v71h87v-56q0 -60 -28.5 -96t-77.5 -41l-39 -56q8 6 30 6q32 0 50.5 -20.5t18.5 -53.5q0 -31 -22.5 -53
t-54.5 -22q-16 0 -31 9v26h13q30 0 30 29v28q0 28 -30 28q-14 0 -29 -15l-27 21z" />
    <glyph glyph-name="egrave" unicode="&#xe8;" horiz-adv-x="294" 
d="M272 126q0 -59 -34.5 -96.5t-87.5 -37.5q-54 0 -89.5 37.5t-35.5 96.5v239q0 59 35.5 97t89.5 38q53 0 87.5 -38t34.5 -97v-135h-144v-119q0 -30 24 -30q25 0 25 30v71h95v-56zM174 284v97q0 12 -6.5 20.5t-16.5 8.5t-16.5 -8.5t-6.5 -20.5v-97h46zM180 541h-54l-72 137
h93z" />
    <glyph glyph-name="eacute" unicode="&#xe9;" horiz-adv-x="294" 
d="M272 126q0 -59 -34.5 -96.5t-87.5 -37.5q-54 0 -89.5 37.5t-35.5 96.5v239q0 59 35.5 97t89.5 38q53 0 87.5 -38t34.5 -97v-135h-144v-119q0 -30 24 -30q25 0 25 30v71h95v-56zM174 284v97q0 12 -6.5 20.5t-16.5 8.5t-16.5 -8.5t-6.5 -20.5v-97h46zM248 678l-72 -137h-54
l33 137h93z" />
    <glyph glyph-name="ecircumflex" unicode="&#xea;" horiz-adv-x="294" 
d="M272 126q0 -59 -34.5 -96.5t-87.5 -37.5q-54 0 -89.5 37.5t-35.5 96.5v239q0 59 35.5 97t89.5 38q53 0 87.5 -38t34.5 -97v-135h-144v-119q0 -30 24 -30q25 0 25 30v71h95v-56zM174 284v97q0 12 -6.5 20.5t-16.5 8.5t-16.5 -8.5t-6.5 -20.5v-97h46zM263 550
q-21 -8 -39 -8q-61 0 -75 75q-14 -75 -75 -75q-15 0 -34 8v29q22 0 43.5 25.5t31.5 73.5h72q11 -48 32.5 -73.5t43.5 -25.5v-29z" />
    <glyph glyph-name="edieresis" unicode="&#xeb;" horiz-adv-x="294" 
d="M272 126q0 -59 -34.5 -96.5t-87.5 -37.5q-54 0 -89.5 37.5t-35.5 96.5v239q0 59 35.5 97t89.5 38q53 0 87.5 -38t34.5 -97v-135h-144v-119q0 -30 24 -30q25 0 25 30v71h95v-56zM174 284v97q0 12 -6.5 20.5t-16.5 8.5t-16.5 -8.5t-6.5 -20.5v-97h46zM243 550h-75v101h75
v-101zM130 550h-74v101h74v-101z" />
    <glyph glyph-name="igrave" unicode="&#xec;" horiz-adv-x="162" 
d="M134 0h-106v491h106v-491zM108 541h-54l-72 137h93z" />
    <glyph glyph-name="iacute" unicode="&#xed;" horiz-adv-x="162" 
d="M134 0h-106v491h106v-491zM180 678l-72 -137h-54l33 137h93z" />
    <glyph glyph-name="icircumflex" unicode="&#xee;" horiz-adv-x="162" 
d="M134 0h-106v491h106v-491zM194 550q-21 -8 -39 -8q-61 0 -75 75q-14 -75 -75 -75q-15 0 -34 8v29q22 0 43.5 25.5t31.5 73.5h72q11 -48 32.5 -73.5t43.5 -25.5v-29z" />
    <glyph glyph-name="idieresis" unicode="&#xef;" horiz-adv-x="162" 
d="M134 0h-106v491h106v-491zM174 550h-75v101h75v-101zM61 550h-74v101h74v-101z" />
    <glyph glyph-name="eth" unicode="&#xf0;" horiz-adv-x="302" 
d="M218 626l46 20l18 -44l-40 -18q36 -72 36 -176v-279q0 -62 -37 -99.5t-91 -37.5t-89.5 37.5t-35.5 99.5v255q0 42 23.5 73.5t56.5 31.5q35 0 66 -36q-3 52 -18 91l-56 -25l-17 44l52 24q-24 40 -67 76v3h121q20 -20 32 -40zM128 109q0 -12 6.5 -20t15.5 -8t15.5 8t6.5 20
v270q0 12 -6 20t-16 8q-9 0 -15.5 -8t-6.5 -20v-270z" />
    <glyph glyph-name="ntilde" unicode="&#xf1;" horiz-adv-x="310" 
d="M283 0h-105v379q0 12 -6.5 20t-15.5 8t-15.5 -8t-6.5 -20v-379h-106v491h96l4 -50q10 26 31.5 42t46.5 16q36 0 56.5 -27t20.5 -70v-402zM263 631q0 -38 -17 -59t-49 -21q-21 0 -50 21t-38 21q-19 0 -19 -21v-18h-39q-10 19 -10 39q0 80 65 80q22 0 51 -20.5t38 -20.5
q19 0 19 21v18h39q10 -19 10 -40z" />
    <glyph glyph-name="ograve" unicode="&#xf2;" 
d="M275 129q0 -62 -35.5 -99.5t-89.5 -37.5t-89.5 37.5t-35.5 99.5v233q0 62 35.5 100t89.5 38t89.5 -38t35.5 -100v-233zM172 109v273q0 12 -6.5 20t-15.5 8q-10 0 -16.5 -8t-6.5 -20v-273q0 -12 6.5 -20t16.5 -8q9 0 15.5 8t6.5 20zM179 541h-54l-72 137h93z" />
    <glyph glyph-name="oacute" unicode="&#xf3;" 
d="M275 129q0 -62 -35.5 -99.5t-89.5 -37.5t-89.5 37.5t-35.5 99.5v233q0 62 35.5 100t89.5 38t89.5 -38t35.5 -100v-233zM172 109v273q0 12 -6.5 20t-15.5 8q-10 0 -16.5 -8t-6.5 -20v-273q0 -12 6.5 -20t16.5 -8q9 0 15.5 8t6.5 20zM251 678l-72 -137h-54l33 137h93z" />
    <glyph glyph-name="ocircumflex" unicode="&#xf4;" 
d="M275 129q0 -62 -35.5 -99.5t-89.5 -37.5t-89.5 37.5t-35.5 99.5v233q0 62 35.5 100t89.5 38t89.5 -38t35.5 -100v-233zM172 109v273q0 12 -6.5 20t-15.5 8q-10 0 -16.5 -8t-6.5 -20v-273q0 -12 6.5 -20t16.5 -8q9 0 15.5 8t6.5 20zM265 550q-21 -8 -39 -8q-61 0 -75 75
q-14 -75 -75 -75q-15 0 -34 8v29q22 0 43.5 25.5t31.5 73.5h72q11 -48 32.5 -73.5t43.5 -25.5v-29z" />
    <glyph glyph-name="otilde" unicode="&#xf5;" 
d="M275 129q0 -62 -35.5 -99.5t-89.5 -37.5t-89.5 37.5t-35.5 99.5v233q0 62 35.5 100t89.5 38t89.5 -38t35.5 -100v-233zM172 109v273q0 12 -6.5 20t-15.5 8q-10 0 -16.5 -8t-6.5 -20v-273q0 -12 6.5 -20t16.5 -8q9 0 15.5 8t6.5 20zM261 631q0 -38 -17 -59t-49 -21
q-21 0 -50 21t-38 21q-19 0 -19 -21v-18h-39q-10 19 -10 39q0 80 65 80q22 0 51 -20.5t38 -20.5q19 0 19 21v18h39q10 -19 10 -40z" />
    <glyph glyph-name="odieresis" unicode="&#xf6;" 
d="M275 129q0 -62 -35.5 -99.5t-89.5 -37.5t-89.5 37.5t-35.5 99.5v233q0 62 35.5 100t89.5 38t89.5 -38t35.5 -100v-233zM172 109v273q0 12 -6.5 20t-15.5 8q-10 0 -16.5 -8t-6.5 -20v-273q0 -12 6.5 -20t16.5 -8q9 0 15.5 8t6.5 20zM243 550h-75v101h75v-101zM130 550h-74
v101h74v-101z" />
    <glyph glyph-name="oslash" unicode="&#xf8;" 
d="M36 84q-11 19 -11 47v231q0 62 35.5 100t89.5 38q55 0 90 -43l32 57l35 -27l-44 -80q12 -19 12 -48v-230q0 -62 -35.5 -99.5t-89.5 -37.5q-57 0 -91 42l-31 -56l-35 27zM127 250l45 80v52q0 12 -6.5 20t-15.5 8q-10 0 -16.5 -8t-6.5 -20v-132zM172 240l-45 -80v-51
q0 -12 6.5 -20t16.5 -8q9 0 15.5 8t6.5 20v131z" />
    <glyph glyph-name="ugrave" unicode="&#xf9;" horiz-adv-x="311" 
d="M282 0h-92l-4 50q-11 -27 -33 -42.5t-47 -15.5q-36 0 -57 27t-21 70v402h105v-379q0 -12 6.5 -20t16.5 -8q9 0 15.5 8t6.5 20v379h104v-491zM182 541h-54l-72 137h93z" />
    <glyph glyph-name="uacute" unicode="&#xfa;" horiz-adv-x="311" 
d="M282 0h-92l-4 50q-11 -27 -33 -42.5t-47 -15.5q-36 0 -57 27t-21 70v402h105v-379q0 -12 6.5 -20t16.5 -8q9 0 15.5 8t6.5 20v379h104v-491zM254 678l-72 -137h-54l33 137h93z" />
    <glyph glyph-name="ucircumflex" unicode="&#xfb;" horiz-adv-x="311" 
d="M282 0h-92l-4 50q-11 -27 -33 -42.5t-47 -15.5q-36 0 -57 27t-21 70v402h105v-379q0 -12 6.5 -20t16.5 -8q9 0 15.5 8t6.5 20v379h104v-491zM269 550q-21 -8 -39 -8q-61 0 -75 75q-14 -75 -75 -75q-15 0 -34 8v29q22 0 43.5 25.5t31.5 73.5h72q11 -48 32.5 -73.5
t43.5 -25.5v-29z" />
    <glyph glyph-name="udieresis" unicode="&#xfc;" horiz-adv-x="311" 
d="M282 0h-92l-4 50q-11 -27 -33 -42.5t-47 -15.5q-36 0 -57 27t-21 70v402h105v-379q0 -12 6.5 -20t16.5 -8q9 0 15.5 8t6.5 20v379h104v-491zM250 550h-75v101h75v-101zM137 550h-74v101h74v-101z" />
    <glyph glyph-name="yacute" unicode="&#xfd;" horiz-adv-x="275" 
d="M272 491l-90 -509q-15 -80 -41.5 -112.5t-94.5 -32.5h-21v87h16q20 0 29 9t14 35l7 56l-84 467h102l26 -213l8 -84l7 84l25 213h97zM240 678l-72 -137h-54l33 137h93z" />
    <glyph glyph-name="thorn" unicode="&#xfe;" horiz-adv-x="305" 
d="M281 96q0 -43 -23.5 -74t-57.5 -31q-36 0 -67 37v-188h-105v826h105v-203q31 36 67 36q34 0 57.5 -30.5t23.5 -73.5v-299zM178 112v267q0 11 -6.5 19t-16.5 8q-9 0 -15.5 -8t-6.5 -19v-267q0 -12 6.5 -20t15.5 -8q10 0 16.5 8t6.5 20z" />
    <glyph glyph-name="ydieresis" unicode="&#xff;" horiz-adv-x="275" 
d="M272 491l-90 -509q-15 -80 -41.5 -112.5t-94.5 -32.5h-21v87h16q20 0 29 9t14 35l7 56l-84 467h102l26 -213l8 -84l7 84l25 213h97zM237 550h-75v101h75v-101zM124 550h-74v101h74v-101z" />
    <glyph glyph-name="dotlessi" unicode="&#x131;" horiz-adv-x="162" 
d="M134 0h-106v491h106v-491z" />
    <glyph glyph-name="Lslash" unicode="&#x141;" horiz-adv-x="343" 
d="M202 349v-235h135v-114h-263v235l-58 -47l-24 37l82 79v362h128v-248l54 49l24 -38z" />
    <glyph glyph-name="lslash" unicode="&#x142;" horiz-adv-x="217" 
d="M238 470l-77 -105v-365h-105v229l-43 -55l-32 35l75 102v355h105v-218l46 58z" />
    <glyph glyph-name="OE" unicode="&#x152;" horiz-adv-x="505" 
d="M488 0h-308q-68 0 -110.5 37.5t-42.5 109.5v364q0 73 43 114t110 41h308v-113h-143v-159h94v-104h-94v-173h143v-117zM217 111v444h-27q-35 0 -35 -43v-359q0 -42 35 -42h27z" />
    <glyph glyph-name="oe" unicode="&#x153;" horiz-adv-x="452" 
d="M431 126q0 -60 -30.5 -97t-83.5 -37q-57 0 -88 41q-30 -41 -88 -41q-53 0 -84.5 37t-31.5 100v233q0 63 31.5 100.5t84.5 37.5q57 0 89 -42q14 19 38 30.5t49 11.5q52 0 83 -37.5t31 -97.5v-135h-145v-116q0 -30 25 -30t25 30v68h95v-56zM334 284v94q0 12 -7 20.5
t-17 8.5t-17 -8.5t-7 -20.5v-94h48zM172 112v267q0 12 -6.5 20t-15.5 8q-10 0 -16.5 -8t-6.5 -20v-267q0 -12 6.5 -20t16.5 -8q9 0 15.5 8t6.5 20z" />
    <glyph glyph-name="Scaron" unicode="&#x160;" horiz-adv-x="346" 
d="M330 155q0 -77 -44.5 -122.5t-112.5 -45.5q-74 0 -116 41.5t-42 115.5v58h111v-62q0 -45 41 -45q39 0 39 44q0 37 -18 68.5t-59 82.5q-111 124 -111 219q0 72 42 120.5t119 48.5q65 0 104.5 -43t39.5 -113v-58h-111v66q0 18 -9 28t-24 10t-26 -10.5t-11 -28.5
q0 -19 3 -33.5t12.5 -31.5t14.5 -25t23 -31t25 -32q35 -42 54.5 -69t37.5 -69.5t18 -82.5zM287 805q-22 0 -43.5 -25.5t-31.5 -72.5h-73q-10 47 -31.5 72.5t-43.5 25.5v29q17 7 39 7q61 0 75 -74q14 74 74 74q18 0 35 -7v-29z" />
    <glyph glyph-name="scaron" unicode="&#x161;" horiz-adv-x="277" 
d="M263 128q0 -59 -30.5 -97.5t-90.5 -38.5q-58 0 -91 35.5t-33 96.5v31h91v-41q0 -35 27 -35q30 0 30 32q0 17 -6.5 31.5t-15 23.5t-26.5 26.5t-31 32.5q-67 71 -67 141q0 64 33.5 99t87.5 35t86.5 -38t32.5 -93v-31h-90v39q0 33 -26 33t-26 -30q0 -16 7 -31.5t15 -26
t27 -33.5q3 -3 15.5 -14.5t17.5 -16t15.5 -16t15.5 -18.5t12.5 -19t11 -23t6 -25t2.5 -29zM250 645q-22 0 -43.5 -25.5t-31.5 -72.5h-73q-10 47 -31.5 72.5t-43.5 25.5v29q17 7 39 7q61 0 75 -74q14 74 74 74q18 0 35 -7v-29z" />
    <glyph glyph-name="Ydieresis" unicode="&#x178;" horiz-adv-x="354" 
d="M357 666l-119 -395v-271h-128v271l-111 395h129l54 -249l49 249h126zM274 710h-75v101h75v-101zM161 710h-74v101h74v-101z" />
    <glyph glyph-name="Zcaron" unicode="&#x17d;" horiz-adv-x="316" 
d="M306 631l-153 -515h146v-116h-294v35l155 518h-145v113h291v-35zM273 805q-22 0 -43.5 -25.5t-31.5 -72.5h-73q-10 47 -31.5 72.5t-43.5 25.5v29q17 7 39 7q61 0 75 -74q14 74 74 74q18 0 35 -7v-29z" />
    <glyph glyph-name="zcaron" unicode="&#x17e;" horiz-adv-x="254" 
d="M240 449l-111 -345h106v-104h-223v42l113 350h-104v99h219v-42zM243 645q-22 0 -43.5 -25.5t-31.5 -72.5h-73q-10 47 -31.5 72.5t-43.5 25.5v29q17 7 39 7q61 0 75 -74q14 74 74 74q18 0 35 -7v-29z" />
    <glyph glyph-name="florin" unicode="&#x192;" horiz-adv-x="281" 
d="M198 395h62v-82h-62v-186q0 -69 -35 -106.5t-105 -37.5h-24v81h11q23 0 31.5 10t8.5 33v206h-62v82h62v128q0 68 35 105.5t106 37.5h23v-81h-11q-23 0 -31.5 -10t-8.5 -33v-147z" />
    <glyph glyph-name="circumflex" unicode="&#x2c6;" horiz-adv-x="243" 
d="M233 550q-21 -8 -39 -8q-61 0 -75 75q-14 -75 -75 -75q-15 0 -34 8v29q22 0 43.5 25.5t31.5 73.5h72q11 -48 32.5 -73.5t43.5 -25.5v-29z" />
    <glyph glyph-name="caron" unicode="&#x2c7;" horiz-adv-x="243" 
d="M233 645q-22 0 -43.5 -25.5t-31.5 -72.5h-73q-10 47 -31.5 72.5t-43.5 25.5v29q17 7 39 7q61 0 75 -74q14 74 74 74q18 0 35 -7v-29z" />
    <glyph glyph-name="breve" unicode="&#x2d8;" horiz-adv-x="212" 
d="M200 626q0 -35 -27 -58t-67 -23q-41 0 -67.5 23t-26.5 58q0 22 8 41h43v-13q0 -45 43 -45t43 45v13h43q8 -19 8 -41z" />
    <glyph glyph-name="dotaccent" unicode="&#x2d9;" horiz-adv-x="211" 
d="M143 550h-74v101h74v-101z" />
    <glyph glyph-name="ring" unicode="&#x2da;" horiz-adv-x="160" 
d="M150 618q0 -30 -20 -52t-49 -22t-48.5 22t-19.5 52t19.5 51.5t48.5 21.5t49 -21.5t20 -51.5zM115 618q0 42 -34 42q-33 0 -33 -42t33 -42q34 0 34 42z" />
    <glyph glyph-name="ogonek" unicode="&#x2db;" horiz-adv-x="155" 
d="M150 -153q-13 -11 -51 -11t-60 21t-22 55q0 77 105 116l11 -14q-54 -36 -54 -88q0 -49 55 -49h16v-30z" />
    <glyph glyph-name="tilde" unicode="&#x2dc;" horiz-adv-x="243" 
d="M233 631q0 -38 -17 -59t-49 -21q-21 0 -50 21t-38 21q-19 0 -19 -21v-18h-39q-10 19 -10 39q0 80 65 80q22 0 51 -20.5t38 -20.5q19 0 19 21v18h39q10 -19 10 -40z" />
    <glyph glyph-name="hungarumlaut" unicode="&#x2dd;" horiz-adv-x="218" 
d="M220 678l-63 -137h-53l44 137h72zM112 678l-49 -137h-51l30 137h70z" />
    <glyph glyph-name="Omega" unicode="&#x3a9;" horiz-adv-x="413" 
d="M406 397h-52v-397h-105v397h-87v-397h-105v397h-44v91h44v35q0 143 131 143h24v-86h-11q-23 0 -32 -10.5t-9 -33.5v-48h89v35q0 143 131 143h24v-86h-11q-23 0 -32 -10.5t-9 -33.5v-48h54v-91z" />
    <glyph glyph-name="pi" unicode="&#x3c0;" horiz-adv-x="612" 
d="M592 319q0 -120 -82 -204.5t-204 -84.5t-204 84.5t-82 204.5q0 121 82 205t204 84t204 -84t82 -205zM547 319q0 105 -67.5 176.5t-173.5 71.5t-173.5 -71.5t-67.5 -176.5q0 -104 67.5 -175.5t173.5 -71.5t173.5 71.5t67.5 175.5zM412 359q0 -69 -77 -69h-55v-101h-49v263
h104q77 0 77 -66v-27zM362 359v27q0 30 -32 30h-50v-88h50q32 0 32 31z" />
    <glyph glyph-name="endash" unicode="&#x2013;" horiz-adv-x="450" 
d="M388 264h-325v84h325v-84z" />
    <glyph glyph-name="emdash" unicode="&#x2014;" horiz-adv-x="675" 
d="M613 264h-550v84h550v-84z" />
    <glyph glyph-name="quoteleft" unicode="&#x2018;" horiz-adv-x="141" 
d="M24 568q0 42 26 71t69 29v-29q-45 0 -45 -60h45v-129h-95v118z" />
    <glyph glyph-name="quoteright" unicode="&#x2019;" horiz-adv-x="141" 
d="M118 548q0 -43 -26 -71.5t-69 -28.5v28q45 0 45 60h-45v130h95v-118z" />
    <glyph glyph-name="quotesinglbase" unicode="&#x201a;" horiz-adv-x="141" 
d="M118 12q0 -43 -26 -71.5t-69 -28.5v28q45 0 45 60h-45v130h95v-118z" />
    <glyph glyph-name="quotedblleft" unicode="&#x201c;" horiz-adv-x="259" 
d="M142 568q0 42 26 71t69 29v-29q-45 0 -45 -60h45v-129h-95v118zM24 568q0 42 26 71t69 29v-29q-45 0 -45 -60h45v-129h-95v118z" />
    <glyph glyph-name="quotedblright" unicode="&#x201d;" horiz-adv-x="259" 
d="M236 548q0 -43 -26 -71.5t-69 -28.5v28q45 0 45 60h-45v130h95v-118zM118 548q0 -43 -26 -71.5t-69 -28.5v28q45 0 45 60h-45v130h95v-118z" />
    <glyph glyph-name="quotedblbase" unicode="&#x201e;" horiz-adv-x="259" 
d="M236 12q0 -43 -26 -71.5t-69 -28.5v28q45 0 45 60h-45v130h95v-118zM118 12q0 -43 -26 -71.5t-69 -28.5v28q45 0 45 60h-45v130h95v-118z" />
    <glyph glyph-name="dagger" unicode="&#x2020;" horiz-adv-x="318" 
d="M310 429q0 -11 -12 -11q-78 0 -118 11q11 -40 11 -175q0 -247 -9 -313q0 -13 -10 -13h-26q-10 0 -10 13q-8 70 -8 313q0 134 10 175q-40 -11 -118 -11q-12 0 -12 11v40q0 11 12 11q75 0 118 -11q-10 38 -10 184q0 13 10 13h42q11 0 11 -13q0 -141 -10 -184q41 11 117 11
q12 0 12 -11v-40z" />
    <glyph glyph-name="daggerdbl" unicode="&#x2021;" horiz-adv-x="318" 
d="M310 115q0 -10 -12 -10q-80 0 -117 10q10 -41 10 -184q0 -12 -11 -12h-42q-10 0 -10 12q0 148 10 184q-39 -10 -118 -10q-12 0 -12 10v41q0 10 12 10q77 0 118 -10q-10 41 -10 132t10 132q-40 -11 -118 -11q-12 0 -12 11v40q0 10 12 10q79 0 118 -10q-10 36 -10 184
q0 13 10 13h42q11 0 11 -13q0 -143 -10 -184q37 10 117 10q12 0 12 -10v-40q0 -11 -12 -11q-78 0 -118 11q11 -40 11 -132t-11 -132q41 10 118 10q12 0 12 -10v-41z" />
    <glyph glyph-name="bullet" unicode="&#x2022;" horiz-adv-x="240" 
d="M224 333q0 -48 -29 -76.5t-74 -28.5q-46 0 -75 28t-29 77t29 77t75 28q45 0 74 -28.5t29 -76.5z" />
    <glyph glyph-name="ellipsis" unicode="&#x2026;" horiz-adv-x="431" 
d="M408 0h-95v129h95v-129zM263 0h-95v129h95v-129zM118 0h-95v129h95v-129z" />
    <glyph glyph-name="perthousand" unicode="&#x2030;" horiz-adv-x="725" 
d="M207 432q0 -43 -25.5 -68.5t-66.5 -25.5q-40 0 -65.5 25.5t-25.5 68.5v152q0 43 25.5 68.5t65.5 25.5q41 0 66.5 -25.5t25.5 -68.5v-152zM455 656l-366 -676l-39 29l367 676zM704 81q0 -43 -25.5 -69t-65.5 -26q-41 0 -66.5 26t-25.5 69v152q0 43 26 68.5t66 25.5
t65.5 -25.5t25.5 -68.5v-152zM482 81q0 -43 -26 -69t-66 -26t-66 26t-26 69v152q0 43 26 68.5t66 25.5t66 -25.5t26 -68.5v-152zM143 421v174q0 13 -8 21.5t-20 8.5t-20 -8.5t-8 -21.5v-174q0 -13 8 -21t20 -8t20 8t8 21zM641 70v173q0 13 -8 21.5t-20 8.5q-13 0 -20.5 -8
t-7.5 -22v-173q0 -13 7.5 -21.5t20.5 -8.5q12 0 20 8.5t8 21.5zM418 70v173q0 13 -8 21.5t-20 8.5t-19.5 -8.5t-7.5 -21.5v-173q0 -13 7.5 -21.5t19.5 -8.5t20 8.5t8 21.5z" />
    <glyph glyph-name="guilsinglleft" unicode="&#x2039;" horiz-adv-x="205" 
d="M179 0h-41q-23 125 -115 162v63q92 37 115 162h41q0 -139 -55 -194q55 -54 55 -193z" />
    <glyph glyph-name="guilsinglright" unicode="&#x203a;" horiz-adv-x="205" 
d="M183 162q-92 -37 -115 -162h-42q0 139 55 193q-55 55 -55 194h42q23 -125 115 -162v-63z" />
    <glyph glyph-name="fraction" unicode="&#x2044;" horiz-adv-x="95" 
d="M318 709l-497 -782l-42 30l497 782z" />
    <glyph glyph-name="trademark" unicode="&#x2122;" horiz-adv-x="483" 
d="M449 442h-40v182l-16 -64l-37 -118h-40l-35 118l-16 64v-182h-41v224h62l36 -125l15 -59l15 59l35 125h62v-224zM184 628h-62v-186h-45v186h-62v38h169v-38z" />
    <glyph glyph-name="product" unicode="&#x220f;" horiz-adv-x="358" 
d="M230 0l-53 267h-19v-267h-129v666h183q54 0 90 -33.5t36 -99.5v-136q0 -72 -50 -98l61 -299h-119zM158 364h36q22 0 22 30v134q0 30 -22 30h-36v-194z" />
    <glyph glyph-name="radical" unicode="&#x221a;" horiz-adv-x="575" 
d="M547 0h-106v666h106v-666zM406 397h-52v-397h-105v397h-87v-397h-105v397h-44v91h44v35q0 143 131 143h24v-86h-11q-23 0 -32 -10.5t-9 -33.5v-48h89v35q0 143 131 143h24v-86h-11q-23 0 -32 -10.5t-9 -33.5v-48h54v-91z" />
    <glyph glyph-name="approxequal" unicode="&#x2248;" horiz-adv-x="575" 
d="M545 545h-102v104h102v-104zM406 397h-52v-397h-105v397h-87v-397h-105v397h-44v91h44v35q0 143 131 143h24v-86h-11q-23 0 -32 -10.5t-9 -33.5v-48h89v35q0 143 131 143h24v-86h-11q-23 0 -32 -10.5t-9 -33.5v-48h54v-91zM547 0h-106v491h106v-491z" />
    <glyph glyph-name="notequal" unicode="&#x2260;" horiz-adv-x="518" 
d="M494 0h-470v491h470v-491z" />
    <glyph glyph-name="lessequal" unicode="&#x2264;" horiz-adv-x="345" 
d="M295 112l-252 120v13l252 120v-253z" />
    <glyph glyph-name="greaterequal" unicode="&#x2265;" horiz-adv-x="345" 
d="M307 232l-252 -120v253l252 -120v-13z" />
    <glyph glyph-name="apple" unicode="&#xf8ff;" horiz-adv-x="967" 
d="M868 0h-767v750h767v-750zM859 -104h-6l-3 20l-10 -21h-2l-10 21l-3 -20h-6l6 34h1l13 -26l13 26h1zM806 -87q0 -18 -17 -18q-7 0 -12 5t-5 12q0 18 18 18q7 0 11.5 -5t4.5 -12zM758 -96l-1 -6q-3 -3 -10 -3q-18 0 -18 17q0 8 5.5 13t12.5 5t11 -3l-2 -5q-3 3 -9 3
q-12 0 -12 -12q0 -13 13 -13q4 0 10 4zM702 -71l-13 -19v-14h-6v14l-14 19l6 1l11 -15l9 14h7zM656 -104h-6v15h-16v-15h-6v33h6v-13h16v13h6v-33zM612 -82q0 -12 -17 -12v-10h-6v33q23 3 23 -11zM576 -104h-6l-4 8h-14l-3 -8h-6l15 34h2zM534 -104h-7l-8 11h-5v-11h-6v33
q23 3 23 -10q0 -7 -7 -10zM491 -101q-6 -4 -13 -4q-18 0 -18 17q0 8 5.5 13t13.5 5q6 0 12 -4l-2 -5q-4 4 -11 4q-12 0 -12 -13q0 -12 13 -12q2 0 6 2v7h-9v5h15v-15zM447 -87q0 -18 -17 -18q-7 0 -12 5t-5 12q0 18 18 18q7 0 11.5 -5t4.5 -12zM400 -82q0 -12 -17 -12v-10
h-6v33q23 3 23 -11zM364 -71l-13 -19v-14h-6v14l-14 19l6 1l11 -15l9 14h7zM323 -71v-5h-12v-28h-6v28h-12v5h30zM267 -71l-12 -34h-1l-11 23l-10 -23h-1l-12 34l6 1l7 -23l10 23h1l10 -23l7 22h6zM211 -71l-12 -34h-1l-11 23l-10 -23h-1l-12 34l6 1l7 -23l10 23h1l10 -23
l7 22h6zM155 -71l-12 -34h-1l-11 23l-10 -23h-1l-12 34l6 1l7 -23l10 23h1l10 -23l7 22h6zM716 -101q0 -4 -4 -4t-4 4t4 4t4 -4zM284 -101q0 -4 -4 -4t-4 4t4 4t4 -4zM559 686q0 8 -1 12q-2 -1 -17 -1t-18 1l-1 -12h2q4 9 10 9q3 0 3 -3v-23q-1 -5 -5 -5v-2h17v2l-4 2
q-1 1 -1 3v23q0 3 3 3t5.5 -2.5t3.5 -4.5l1 -2h2zM504 662v2q-6 -1 -6 5v21l6 5v2h-18v-1v-1l4 -2q1 -1 1 -3v-9h-17v9q1 5 5 5v1v1h-17v-2l4 -2q1 -1 1 -3v-21l-5 -5v-2h17v2q-5 0 -5 5v10h17v-10q-1 -5 -5 -5v-2h18zM439 664l-4 2q-1 1 -1 3v21q1 5 5 5v2h-29l-2 -10l2 -1
q3 8 9 8h4q4 0 4 -3v-10h-4l-6 5h-2v-13h2q0 6 6 6h4v-11q0 -3 -4 -3h-4q-3 0 -5.5 2.5t-3.5 4.5l-1 2l-2 -1l2 -11h30v2zM827 618v6h-685v-6h685zM696 540q0 15 -11.5 26.5t-25.5 11.5q-8 0 -15.5 -5.5t-7.5 -16.5q0 -16 11 -27t26 -11q8 0 15.5 5.5t7.5 16.5zM589 537
q0 12 -14 17q5 3 5 9q0 15 -21 15q-13 0 -13 -11q0 -6 5 -6q4 0 4 3q0 2 -1.5 3.5t-1.5 2.5q0 5 7 5q10 0 10 -12q0 -4 -2 -6q-16 2 -16 -6q0 -6 8 -6q6 0 11 5q6 -4 6 -15q0 -14 -12 -14t-12 9q0 3 3 3l1 -1q2 -1 4 -1q4 0 4 5t-7 5q-9 0 -9 -10q0 -13 16 -13q25 0 25 19z
M295 537q0 12 -14 17q5 3 5 9q0 15 -21 15q-13 0 -13 -11q0 -6 5 -6q4 0 4 3q0 2 -1.5 3.5t-1.5 2.5q0 5 7 5q10 0 10 -12q0 -4 -2 -6q-16 2 -16 -6q0 -6 8 -6q6 0 11 5q6 -4 6 -15q0 -14 -12 -14t-12 9q0 3 3 3l1 -1q2 -1 4 -1q4 0 4 5t-7 5q-9 0 -9 -10q0 -13 16 -13
q25 0 25 19zM820 522q-8 -1 -10 8l-7 35q-1 4 1 6t4 2h2l-1 3h-28l1 -3q7 1 9 -8l3 -15h-24l-3 15q-1 4 1 6t4 2h2l-1 3h-29l1 -3q8 1 10 -8l7 -35q1 -4 -1 -6t-4 -2h-2l1 -3h29l-1 3q-8 -1 -10 8l-3 16h24l3 -16q1 -4 -1 -6t-4 -2h-2l1 -3h29zM498 519l-1 3q-8 -1 -10 8
l-7 35q-1 4 1 6t4 2h2l-1 3h-45v-17h4q-1 13 13 13h4q5 0 6 -6l3 -16h-4q-4 0 -7 2t-4 4l-1 3h-3l5 -23h3q-1 11 8 11h4l3 -17q1 -4 -1 -6t-4 -2h-2l1 -3h29zM202 522q-8 -1 -10 8l-7 35q-1 4 1 6t4 2h2l-1 3h-27q-20 0 -20 -15q0 -13 19 -15l-9 -16q-2 -4 -5.5 -6t-6.5 -2
h-2l1 -3h19l12 23q2 3 5 3l3 -15q1 -4 -1 -6t-4 -2h-2l1 -3h29zM400 521q0 8 -13 9q-4 2 -5 14.5t-5.5 23t-18.5 10.5q-5 0 -9 -3.5t-4 -6.5q0 -5 5 -5q4 0 4 6t5 6t7 -8t4.5 -19.5t9.5 -17.5q-8 0 -14 -6.5t-9 -6.5q-5 0 -5 4q0 2 1 3t1 2q0 5 -5 5t-5 -7q0 -4 5 -8t10 -4
q10 0 15 6.5t10 6.5q4 -7 12 -7q4 0 4 3zM827 475v6h-685v-6h685zM827 378v62h-147v-62h36v28h11v-65h-14v-33h81v33h-14v65h11v-28h36zM648 406v34h-81v-34h11l-15 -23l-15 23h10v34h-62v-34h12l37 -46v-19h-14v-33h81v33h-15v20l37 45h14zM458 308v33h-14v65h14v34h-96
q-21 0 -34 -11.5t-13 -28.5q0 -18 13 -29t34 -11h30v-19h-15v-33h81zM283 308v33h-14v65h14v34h-141v-62h41v28h33v-20h-24v-24h24v-21h-33v28h-41v-61h141zM827 271v6h-685v-6h685zM728 192q0 15 -11.5 26.5t-25.5 11.5q-8 0 -15.5 -5.5t-7.5 -16.5q0 -16 11 -27t26 -11
q8 0 15.5 5.5t7.5 16.5zM203 217q-7 13 -18 13q-15 0 -14 -23q-7 23 -21 23q-12 0 -12 -12l3 -1q0 6 8 6q16 0 24 -33q2 -8 0.5 -11.5t-3.5 -3.5h-3l1 -4h28l-1 4q-7 -2 -10 9q-5 17 -5 25q0 13 9 13q5 0 12 -7zM823 171l-1 3q-8 -1 -10 8l-7 35q-1 4 1 6t4 2h2l-1 3h-45
v-17h4q-1 13 13 13h4q5 0 6 -6l3 -16h-4q-4 0 -7 2t-4 4l-1 3h-3l5 -23h3q-1 11 8 11h4l3 -17q1 -4 -1 -6t-4 -2h-2l1 -3h29zM621 225l-1 3h-29l1 -3q8 1 10 -9l5 -21q5 -20 -11 -20q-14 0 -20 22l-4 19q-1 5 1 7t4 2h2v3h-24l1 -3q9 1 11 -9l4 -19q5 -27 28 -27q24 0 19 24
l-5 22q-1 5 1 7t4 2h3zM522 174q-6 0 -9 10l-7 32q-1 4 1 6.5t5 2.5h2l-1 3h-14l-29 -42l-5 30q-1 4 1 6t4 2l2 1l-1 3h-21l1 -3q7 0 9 -9l8 -45l3 -1l30 44l6 -30q1 -5 -0.5 -7.5t-3.5 -2.5h-2l1 -3h21zM414 171l-1 4q-7 -2 -10 9l-8 31q-3 9 8 10l-1 3h-30q-25 0 -25 -22
q0 -15 11 -25t24 -10h32zM306 174q-8 -1 -10 8l-7 35q-1 4 1 6t4 2h2l-1 3h-27q-20 0 -20 -15q0 -13 19 -15l-9 -16q-2 -4 -5.5 -6t-6.5 -2h-2l1 -3h19l12 23q2 3 5 3l3 -15q1 -4 -1 -6t-4 -2h-2l1 -3h29zM827 127v6h-685v-6h685zM694 46v2q-6 1 -6 5v20l6 6v2h-10l-24 -26
v18q0 2 1.5 3.5t2.5 1.5l2 1v2h-15v-2q6 -1 6 -6v-28h3l25 28v-20l-5 -5v-2h14zM633 48l-4 2q-1 1 -1 3v21q1 5 5 5v2h-29l-2 -10l2 -1q3 8 9 8h4q4 0 4 -3v-10h-4l-6 5h-2v-13h2q0 6 6 6h4v-11q0 -3 -4 -3h-4q-3 0 -5.5 2.5t-3.5 4.5l-1 2l-2 -1l2 -11h30v2zM583 81h-15v-2
l2 -5l-9 -19l-5 10l4 8l6 6v2h-26l1 -2q3 0 7 -6l3 -5l-7 -13l-8 18l2 6v2h-13v-2q4 -1 6 -6l13 -27h1q1 -1 1 0l8 16l9 -16h1l12 27q1 3 3 4.5t3 1.5h1v2zM480 79v2h-15v-2l1 -5l-6 -9l-6 9l3 5v2h-15v-2q5 0 8 -5l8 -12v-8l-5 -6v-2h17v2q-5 0 -5 6v8l8 12zM425 64
q0 18 -20 18t-20 -18q0 -19 20 -19t20 19zM364 46v2q-5 0 -5 5v20l5 6v2h-18q-13 0 -13 -9q0 -5 9 -9l-7 -10l-8 -5v-2h11l7 12q3 4 7 4v-9l-5 -5v-2h17zM309 46v2q-6 1 -6 6v20l6 5v2h-18v-2q6 0 6 -5v-9q-2 0 -4 2l-8 8l1 4v2h-14v-2q5 -1 8 -4l10 -9l-13 -13l-7 -5v-2h17
v2l-2 5l8 8q2 2 4 2v-9q0 -3 -1.5 -4.5t-3.5 -1.5h-1v-2h18zM606 -83q0 8 -11 7v-13q11 0 11 6zM525 -82q0 8 -11 6v-12q11 -1 11 6zM394 -83q0 8 -11 7v-13q11 0 11 6zM564 -92l-5 12l-5 -12h10zM800 -88q0 13 -11 13t-11 -12q0 -13 11 -13t11 12zM441 -88q0 13 -11 13
t-11 -12q0 -13 11 -13t11 12zM176 548h-5q-15 0 -15 15q0 9 8 9t9 -5zM566 553q-3 -4 -7 -4t-4 2q0 3 4 3q5 0 7 -1zM272 553q-3 -4 -7 -4t-4 2q0 3 4 3q5 0 7 -1zM684 535q0 -13 -11 -13q-9 0 -17 11.5t-8 26.5q0 14 11 14q9 0 17 -12t8 -27zM392 384h-11q-13 0 -13 11
t13 11h11v-22zM280 200h-5q-15 0 -15 15q0 9 8 9t9 -5zM716 187q0 -13 -11 -13q-9 0 -17 11.5t-8 26.5q0 14 11 14q9 0 17 -12t8 -27zM393 182q0 -7 -4 -7h-5q-11 0 -18.5 10t-7.5 22q0 17 14 17h6q4 -1 6 -7zM553 79q5 0 0 -9q-5 9 0 9zM352 64h-3q-8 0 -8 8q0 6 7 6
q4 0 4 -4v-10zM417 64q0 -17 -12 -17t-12 17q0 16 12 16t12 -16z" />
    <glyph glyph-name="fi" unicode="&#xfb01;" horiz-adv-x="383" 
d="M353 545h-102v104h102v-104zM214 397h-52v-397h-105v397h-44v91h44v35q0 143 131 143h24v-86h-11q-23 0 -32 -10.5t-9 -33.5v-48h54v-91zM355 0h-106v491h106v-491z" />
    <glyph glyph-name="fl" unicode="&#xfb02;" horiz-adv-x="383" 
d="M355 0h-106v666h106v-666zM214 397h-52v-397h-105v397h-44v91h44v35q0 143 131 143h24v-86h-11q-23 0 -32 -10.5t-9 -33.5v-48h54v-91z" />
    </font>
</defs>
</svg>
